<?xml version="1.0" standalone="no"?>
<!DOCTYPE svg PUBLIC "-//W3C//DTD SVG 1.1//EN" "http://www.w3.org/Graphics/SVG/1.1/DTD/svg11.dtd" >
<svg>
<metadata>
Created by FontForge 20120731 at Sun Jun 12 09:41:10 2016
 By ,,,
Copyright (c) 2013 by Nico Inosanto. All rights reserved.
</metadata>
<defs>
<font id="Radikal-Thin" horiz-adv-x="578" >
  <font-face 
    font-family="Radikal Thin"
    font-weight="250"
    font-stretch="normal"
    units-per-em="1000"
    panose-1="0 0 0 0 0 0 0 0 0 0"
    ascent="750"
    descent="-250"
    x-height="497"
    cap-height="735"
    bbox="-145 -264 1196 1051"
    underline-thickness="50"
    underline-position="-50"
    unicode-range="U+0020-FB01"
  />
<missing-glyph horiz-adv-x="595" 
d="M68 699h460v-699h-460v699zM478 666h-364l182 -290zM494 630l-179 -284l179 -285v569zM296 315l-178 -281h355zM101 625v-559l176 280z" />
    <glyph glyph-name="fi" unicode="fi" horiz-adv-x="551" 
d="M256 760q48 0 83 -24l-18 -40q-25 19 -64 19q-44 0 -70.5 -32t-26.5 -82v-104h149v-44h-149v-453h-48v453h-92v44h92v103q0 69 39.5 114.5t104.5 45.5zM463 497v-497h-49v497h49zM439 702q17 0 29.5 -12t12.5 -29q0 -18 -12 -29.5t-30 -11.5q-17 0 -29 11.5t-12 29.5
q0 17 12 29t29 12z" />
    <glyph glyph-name="f_j" unicode="fj" horiz-adv-x="551" 
d="M256 760q48 0 83 -24l-18 -40q-25 19 -64 19q-44 0 -70.5 -32t-26.5 -82v-104h149v-44h-149v-453h-48v453h-92v44h92v103q0 69 39.5 114.5t104.5 45.5zM463 497v-584q0 -65 -43.5 -109t-110.5 -44q-77 0 -127 52l33 33q38 -40 93 -40q46 0 76 30t30 76v586h49zM439 702
q17 0 29.5 -12t12.5 -29q0 -18 -12 -29.5t-30 -11.5q-17 0 -29 11.5t-12 29.5q0 17 12 29t29 12z" />
    <glyph glyph-name=".notdef" horiz-adv-x="595" 
d="M68 699h460v-699h-460v699zM478 666h-364l182 -290zM494 630l-179 -284l179 -285v569zM296 315l-178 -281h355zM101 625v-559l176 280z" />
    <glyph glyph-name=".null" horiz-adv-x="0" 
 />
    <glyph glyph-name="nonmarkingreturn" horiz-adv-x="333" 
 />
    <glyph glyph-name="space" unicode=" " horiz-adv-x="246" 
 />
    <glyph glyph-name="exclam" unicode="!" horiz-adv-x="230" 
d="M139 735v-551h-48v551h48zM115 69q18 0 30 -12t12 -29q0 -18 -12 -29.5t-30 -11.5q-17 0 -28.5 11.5t-11.5 29.5q0 17 11.5 29t28.5 12z" />
    <glyph glyph-name="quotedbl" unicode="&#x22;" horiz-adv-x="258" 
d="M50 745l50 -11l-24 -248h-23zM178 745l50 -11l-24 -248h-23z" />
    <glyph glyph-name="numbersign" unicode="#" horiz-adv-x="707" 
d="M568 735l-40 -221h161v-43h-168l-38 -216h159v-43h-166l-36 -212h-50l38 212h-218l-36 -212h-50l38 212h-161v43h168l39 216h-160v43h167l39 221h48l-40 -221h219l39 221h48zM474 471h-219l-38 -216h218z" />
    <glyph glyph-name="dollar" unicode="$" horiz-adv-x="565" 
d="M311 869v-123q103 -10 185 -76l-28 -42q-84 72 -193 72q-76 0 -124 -38.5t-48 -112.5q0 -63 43 -93t152 -55q128 -30 183.5 -75.5t55.5 -128.5q0 -90 -61.5 -147t-164.5 -62v-117h-44v117q-134 7 -228 89l31 42q41 -39 100.5 -61.5t122.5 -22.5q85 0 139.5 42t54.5 118
q0 62 -48 97t-155 59q-128 29 -180 72t-52 125q0 91 59 144.5t156 55.5v121h44z" />
    <glyph glyph-name="percent" unicode="%" horiz-adv-x="844" 
d="M691 735l-485 -735h-54l485 735h54zM205 748q74 0 122.5 -52t48.5 -131t-48.5 -130t-122.5 -51q-75 0 -123.5 51t-48.5 130t48.5 131t123.5 52zM205 708q-57 0 -94 -40.5t-37 -102.5q0 -61 37 -101t94 -40q56 0 92.5 40t36.5 101q0 62 -36.5 102.5t-92.5 40.5zM640 351
q74 0 122.5 -51.5t48.5 -130.5t-48.5 -130t-122.5 -51q-75 0 -123.5 51t-48.5 130t48.5 130.5t123.5 51.5zM640 311q-57 0 -93.5 -40t-36.5 -102t36.5 -101.5t93.5 -39.5q56 0 93 40t37 101t-37 101.5t-93 40.5z" />
    <glyph glyph-name="ampersand" unicode="&#x26;" horiz-adv-x="662" 
d="M283 748q66 0 106.5 -39.5t40.5 -103.5q0 -58 -36 -97.5t-113 -87.5q2 -2 25 -26t35 -37l144 -160l113 128h63l-144 -164l146 -161h-67l-112 124q-58 -63 -112.5 -98.5t-126.5 -35.5q-90 0 -151 54t-61 145q0 77 41.5 128t139.5 111q-77 92 -77 173q0 67 39.5 107
t106.5 40zM306 325q-61 66 -64 70q-86 -53 -122.5 -96t-36.5 -108q0 -71 47 -113t117 -42q42 0 82 20.5t64 42.5t59 61zM185 600q0 -67 69 -148q71 43 99.5 75.5t28.5 75.5q0 47 -26.5 73.5t-72.5 26.5t-72 -26.5t-26 -76.5z" />
    <glyph glyph-name="quotesingle" unicode="'" horiz-adv-x="129" 
d="M50 745l50 -11l-24 -248h-23z" />
    <glyph glyph-name="parenleft" unicode="(" horiz-adv-x="260" 
d="M201 684l35 -29q-137 -161 -137 -366t137 -366l-35 -29q-149 171 -149 395t149 395z" />
    <glyph glyph-name="parenright" unicode=")" horiz-adv-x="260" 
d="M59 684q148 -169 148 -395t-148 -395l-36 29q138 159 138 366t-138 366z" />
    <glyph glyph-name="asterisk" unicode="*" horiz-adv-x="392" 
d="M216 734l-1 -144l136 46l13 -37l-137 -44l85 -115l-32 -23l-83 115l-83 -115l-32 23l85 115l-138 44l13 37l136 -46l-2 144h40z" />
    <glyph glyph-name="plus" unicode="+" horiz-adv-x="459" 
d="M252 536v-163h163v-46h-163v-163h-46v163h-163v46h163v163h46z" />
    <glyph glyph-name="comma" unicode="," horiz-adv-x="158" 
d="M68 84q20 0 33.5 -13.5t13.5 -33.5q0 -9 -6 -25l-52 -142h-4v212q5 2 15 2z" />
    <glyph glyph-name="hyphen" unicode="-" horiz-adv-x="443" 
d="M399 282v-47h-356v47h356z" />
    <glyph glyph-name="period" unicode="." horiz-adv-x="173" 
d="M87 84q20 0 33.5 -13t13.5 -34q0 -20 -13.5 -33.5t-33.5 -13.5t-34 13.5t-14 33.5t14 33.5t34 13.5z" />
    <glyph glyph-name="slash" unicode="/" horiz-adv-x="425" 
d="M420 734l-364 -734h-51l365 734h50z" />
    <glyph glyph-name="zero" unicode="0" horiz-adv-x="583" 
d="M292 748q120 0 184 -101.5t64 -278.5q0 -178 -64 -279.5t-184 -101.5t-185 101.5t-65 279.5q0 177 65 278.5t185 101.5zM292 701q-97 0 -148 -88.5t-51 -244.5t51 -245t148 -89q96 0 147 89t51 245q0 155 -51 244t-147 89z" />
    <glyph glyph-name="one" unicode="1" horiz-adv-x="351" 
d="M263 748v-748h-50v651l-158 -123l-25 43l229 177h4z" />
    <glyph glyph-name="two" unicode="2" horiz-adv-x="526" 
d="M271 748q90 0 147.5 -57t57.5 -149q0 -72 -23 -126t-77 -119l-208 -250h321v-47h-418v6l265 321q49 59 69.5 106.5t20.5 109.5q0 73 -43.5 115.5t-111.5 42.5q-131 0 -160 -137l-46 10q36 174 206 174z" />
    <glyph glyph-name="three" unicode="3" horiz-adv-x="524" 
d="M269 748q86 0 141.5 -53.5t55.5 -141.5q0 -122 -114 -163q68 -21 106.5 -70t38.5 -117q0 -97 -60 -156.5t-157 -59.5q-91 0 -144 40.5t-86 117.5l45 15q27 -61 69.5 -93.5t115.5 -32.5q75 0 121 46.5t46 122.5q0 70 -51.5 116.5t-132.5 46.5h-83v46h86q62 0 106 36
t44 106q0 67 -41.5 107t-106.5 40q-115 0 -164 -120l-44 19q59 148 209 148z" />
    <glyph glyph-name="four" unicode="4" horiz-adv-x="535" 
d="M400 737v-521h116v-47h-116v-169h-50v169h-327v4l372 564h5zM350 589l-241 -373h241v373z" />
    <glyph glyph-name="five" unicode="5" horiz-adv-x="528" 
d="M447 735v-47h-308v-281q60 34 131 34q101 0 162.5 -63.5t61.5 -162.5q0 -96 -60.5 -162t-159.5 -66q-88 0 -140 39t-84 113l44 20q26 -60 67 -92.5t111 -32.5q76 0 124 52t48 130q0 79 -48 128.5t-128 49.5q-83 0 -155 -53l-24 11v383h358z" />
    <glyph glyph-name="six" unicode="6" horiz-adv-x="531" 
d="M265 459q96 0 162.5 -67t66.5 -169t-66.5 -169t-162.5 -67t-162.5 67t-66.5 169q0 88 51 152l246 360h58l-195 -287q35 11 69 11zM265 413q-75 0 -126.5 -54t-51.5 -136t51.5 -135.5t126.5 -53.5t127 53.5t52 135.5q0 81 -52.5 135.5t-126.5 54.5z" />
    <glyph glyph-name="seven" unicode="7" horiz-adv-x="528" 
d="M503 735v-6l-387 -729h-56l368 688h-398v47h473z" />
    <glyph glyph-name="eight" unicode="8" horiz-adv-x="531" 
d="M260 748q81 0 137 -53t56 -133q0 -58 -28.5 -103.5t-74.5 -67.5q62 -23 101 -74.5t39 -117.5q0 -90 -67 -151t-163 -61q-95 0 -161.5 60.5t-66.5 151.5q0 66 38.5 118t100.5 74q-47 22 -75 67.5t-28 103.5q0 80 56 133t136 53zM260 365q-74 0 -126 -47.5t-52 -118.5
t52 -118t126 -47q75 0 127.5 47t52.5 118t-52.5 118.5t-127.5 47.5zM260 701q-60 0 -102 -40t-42 -101q0 -64 42 -106.5t102 -42.5q61 0 103 42.5t42 106.5q0 61 -42 101t-103 40z" />
    <glyph glyph-name="nine" unicode="9" horiz-adv-x="531" 
d="M266 748q96 0 162 -67t66 -169q0 -81 -45 -144l-251 -368h-59l194 286q-30 -10 -67 -10q-96 0 -163 67.5t-67 168.5q0 102 67 169t163 67zM266 701q-75 0 -127 -53.5t-52 -135.5t52 -136t127 -54q74 0 126 54t52 136t-51.5 135.5t-126.5 53.5z" />
    <glyph glyph-name="colon" unicode=":" horiz-adv-x="171" 
d="M86 83q20 0 33 -13t13 -34q0 -20 -13 -33t-33 -13t-33.5 13t-13.5 33t13.5 33.5t33.5 13.5zM86 507q20 0 33 -13t13 -33q0 -19 -13 -32.5t-33 -13.5t-33.5 13t-13.5 33t13.5 33t33.5 13z" />
    <glyph glyph-name="semicolon" unicode=";" horiz-adv-x="171" 
d="M70 83q20 0 33.5 -13.5t13.5 -34.5q0 -12 -6 -24l-51 -142h-4v212q8 2 14 2zM86 507q20 0 33 -13t13 -33q0 -19 -13 -32.5t-33 -13.5t-33.5 13t-13.5 33t13.5 33t33.5 13z" />
    <glyph glyph-name="less" unicode="&#x3c;" horiz-adv-x="322" 
d="M299 538l-212 -192l212 -192h-65l-211 190v4l211 190h65z" />
    <glyph glyph-name="equal" unicode="=" horiz-adv-x="459" 
d="M415 267v-46h-372v46h372zM415 479v-46h-372v46h372z" />
    <glyph glyph-name="greater" unicode="&#x3e;" horiz-adv-x="322" 
d="M88 538l211 -190v-4l-211 -190h-65l212 192l-212 192h65z" />
    <glyph glyph-name="question" unicode="?" horiz-adv-x="456" 
d="M220 748q86 0 140 -53.5t54 -138.5q0 -46 -17 -83.5t-41.5 -62t-49 -47t-41.5 -49.5t-17 -58v-72h-50v76q0 37 17 68t41 54t48.5 46t41.5 55.5t17 72.5q0 68 -40.5 106.5t-103.5 38.5q-121 0 -149 -125l-48 10q35 162 198 162zM223 69q18 0 30 -12t12 -29
q0 -18 -12 -29.5t-30 -11.5q-17 0 -29 11.5t-12 29.5q0 17 12 29t29 12z" />
    <glyph glyph-name="at" unicode="@" horiz-adv-x="824" 
d="M412 619q165 0 271 -106t106 -269q0 -101 -40 -160.5t-111 -59.5q-35 0 -56 17t-24 48l-1 5q-56 -70 -153 -70q-85 0 -139 61t-54 155q0 95 54 156t139 61q96 0 151 -67l1 59h40v-342q0 -44 45 -44q51 0 79 50.5t28 130.5q0 144 -95 239t-241 95t-240.5 -95t-94.5 -240
q0 -146 93.5 -240.5t239.5 -94.5q72 0 133 24l15 -37q-71 -27 -148 -27q-164 0 -269.5 105.5t-105.5 269.5q0 163 106.5 269.5t270.5 106.5zM411 418q-68 0 -112.5 -50t-44.5 -128t44 -127.5t113 -49.5q88 0 143 78v199q-58 78 -143 78z" />
    <glyph glyph-name="A" unicode="A" horiz-adv-x="671" 
d="M335 632l-165 -392h331zM337 748l321 -748h-55l-82 194h-372l-81 -194h-55l320 748h4z" />
    <glyph glyph-name="B" unicode="B" horiz-adv-x="650" 
d="M326 735q112 0 168.5 -50.5t56.5 -138.5q0 -62 -30.5 -104t-71.5 -58q165 -33 165 -186q0 -93 -64 -145.5t-174 -52.5h-285v735h235zM355 352h-215v-305h233q90 0 140.5 39t50.5 113q0 153 -209 153zM323 688h-183v-289h197q78 0 121.5 40t43.5 104q0 70 -44.5 107.5
t-134.5 37.5z" />
    <glyph glyph-name="C" unicode="C" horiz-adv-x="679" 
d="M399 748q151 0 254 -103l-33 -38q-90 93 -221 93q-136 0 -223.5 -94.5t-87.5 -238.5q0 -145 87 -238.5t224 -93.5q138 0 228 100l33 -39q-101 -109 -261 -109q-159 0 -261 107.5t-102 272.5t102.5 273t260.5 108z" />
    <glyph glyph-name="D" unicode="D" horiz-adv-x="726" 
d="M301 735q183 0 285.5 -96.5t102.5 -270.5t-102 -271t-286 -97h-210v735h210zM300 686h-158v-638h158q162 0 250 84t88 236q0 151 -89 234.5t-249 83.5z" />
    <glyph glyph-name="E" unicode="E" horiz-adv-x="561" 
d="M526 735v-48h-384v-291h340v-47h-340v-301h392v-48h-443v735h435z" />
    <glyph glyph-name="F" unicode="F" horiz-adv-x="523" 
d="M510 735v-48h-368v-301h317v-48h-317v-338h-51v735h419z" />
    <glyph glyph-name="G" unicode="G" horiz-adv-x="731" 
d="M399 748q151 0 254 -103l-33 -38q-90 93 -221 93q-136 0 -223.5 -94.5t-87.5 -238.5q0 -145 90 -238.5t231 -93.5q126 0 211 68v211h-216v46h267v-282q-100 -91 -262 -91q-163 0 -268 107.5t-105 272.5t102.5 273t260.5 108z" />
    <glyph glyph-name="H" unicode="H" horiz-adv-x="716" 
d="M625 735v-735h-51v351h-432v-351h-51v735h51v-335h432v335h51z" />
    <glyph glyph-name="I" unicode="I" horiz-adv-x="233" 
d="M142 735v-735h-51v735h51z" />
    <glyph glyph-name="J" unicode="J" horiz-adv-x="512" 
d="M432 735v-535q0 -99 -55.5 -156t-148.5 -57q-88 0 -146.5 59t-58.5 159h51q0 -78 42.5 -124t110.5 -46q71 0 112.5 44t41.5 123v533h51z" />
    <glyph glyph-name="K" unicode="K" horiz-adv-x="627" 
d="M560 735l-205 -355l261 -380h-61l-229 333l-193 -333h-42v735h51v-631l358 631h60z" />
    <glyph glyph-name="L" unicode="L" horiz-adv-x="542" 
d="M142 735v-688h387v-47h-438v735h51z" />
    <glyph glyph-name="M" unicode="M" horiz-adv-x="857" 
d="M766 748v-748h-51v563l-283 -565h-6l-284 565v-563h-51v748h4l334 -653l333 653h4z" />
    <glyph glyph-name="N" unicode="N" horiz-adv-x="722" 
d="M631 735v-748h-4l-485 627v-614h-51v748h4l485 -626v613h51z" />
    <glyph glyph-name="O" unicode="O" horiz-adv-x="799" 
d="M399 748q157 0 260 -108.5t103 -272.5q0 -165 -102.5 -272.5t-260.5 -107.5t-260.5 107.5t-102.5 272.5t102.5 273t260.5 108zM399 700q-136 0 -223.5 -94.5t-87.5 -238.5t87.5 -238t223.5 -94t224 94t88 238t-88.5 238.5t-223.5 94.5z" />
    <glyph glyph-name="P" unicode="P" horiz-adv-x="585" 
d="M307 735q115 0 184 -58t69 -164t-68.5 -163.5t-184.5 -57.5h-165v-292h-51v735h216zM304 688h-162v-349h162q95 0 149.5 45t54.5 129t-54.5 129.5t-149.5 45.5z" />
    <glyph glyph-name="Q" unicode="Q" horiz-adv-x="799" 
d="M399 748q157 0 260 -108.5t103 -272.5q0 -95 -36.5 -174t-102.5 -131l147 -171h-65l-123 143q-83 -47 -183 -47q-158 0 -260.5 107.5t-102.5 272.5t102.5 273t260.5 108zM399 700q-136 0 -223.5 -94.5t-87.5 -238.5t87.5 -238t223.5 -94q83 0 151 37l-128 151l37 32
l132 -155q56 45 88 114.5t32 152.5q0 144 -88.5 238.5t-223.5 94.5z" />
    <glyph glyph-name="R" unicode="R" horiz-adv-x="599" 
d="M286 735q117 0 187.5 -57t70.5 -161q0 -81 -44 -134t-121 -73l198 -310h-61l-192 301q-26 -2 -38 -2h-148v-299h-51v735h199zM283 688h-145v-341h145q98 0 153.5 43.5t55.5 126.5t-56 127t-153 44z" />
    <glyph glyph-name="S" unicode="S" horiz-adv-x="568" 
d="M273 748q125 0 220 -78l-28 -42q-84 72 -193 72q-76 0 -124 -38.5t-48 -112.5q0 -63 43 -93t152 -55q128 -30 183.5 -75.5t55.5 -128.5q0 -94 -67 -152t-178 -58q-149 0 -253 90l31 42q41 -39 100.5 -61.5t122.5 -22.5q85 0 139.5 42t54.5 118q0 62 -48 97t-155 59
q-128 29 -180 72t-52 125q0 94 61.5 147t162.5 53z" />
    <glyph glyph-name="T" unicode="T" horiz-adv-x="635" 
d="M620 735v-47h-277v-688h-51v688h-277v47h605z" />
    <glyph glyph-name="U" unicode="U" horiz-adv-x="684" 
d="M602 735v-481q0 -125 -67 -196t-193 -71q-127 0 -193.5 71t-66.5 196v481h51v-480q0 -103 53.5 -161.5t155.5 -58.5t155.5 58.5t53.5 161.5v480h51z" />
    <glyph glyph-name="V" unicode="V" horiz-adv-x="710" 
d="M697 735l-340 -748h-4l-340 748h56l286 -636l287 636h55z" />
    <glyph glyph-name="W" unicode="W" horiz-adv-x="994" 
d="M981 735l-277 -748h-4l-203 603l-203 -603h-4l-277 748h57l221 -608l204 608h4l204 -608l221 608h57z" />
    <glyph glyph-name="X" unicode="X" horiz-adv-x="643" 
d="M615 735l-259 -360l270 -375h-61l-244 335l-243 -335h-61l270 375l-260 360h62l232 -320l233 320h61z" />
    <glyph glyph-name="Y" unicode="Y" horiz-adv-x="623" 
d="M613 734l-276 -413v-321h-51v321l-276 413h60l241 -361l241 361h61z" />
    <glyph glyph-name="Z" unicode="Z" horiz-adv-x="566" 
d="M525 735v-4l-411 -684h423v-47h-505v4l412 684h-396v47h477z" />
    <glyph glyph-name="bracketleft" unicode="[" horiz-adv-x="282" 
d="M257 699v-44h-154v-732h154v-44h-202v820h202z" />
    <glyph glyph-name="backslash" unicode="\" horiz-adv-x="425" 
d="M55 734l365 -734h-51l-364 734h50z" />
    <glyph glyph-name="bracketright" unicode="]" horiz-adv-x="292" 
d="M237 699v-820h-212v44h163v732h-163v44h212z" />
    <glyph glyph-name="asciicircum" unicode="^" horiz-adv-x="539" 
d="M269 760l247 -298h-50l-197 237l-195 -237h-51z" />
    <glyph glyph-name="underscore" unicode="_" horiz-adv-x="806" 
d="M763 0v-46h-720v46h720z" />
    <glyph glyph-name="grave" unicode="`" horiz-adv-x="256" 
d="M98 695l143 -116h-59l-150 116h66z" />
    <glyph glyph-name="a" unicode="a" 
d="M265 507q115 0 179 -80l1 70h46v-497h-46l-1 72q-65 -82 -179 -82q-102 0 -167 73t-65 185q0 113 65 186t167 73zM271 462q-83 0 -136 -60t-53 -154t53 -153.5t136 -59.5q105 0 171 95v237q-66 95 -171 95z" />
    <glyph glyph-name="b" unicode="b" 
d="M136 760v-331q64 78 177 78q102 0 167 -73t65 -186q0 -112 -65 -185t-167 -73q-114 0 -179 82l-1 -72h-46v760h49zM307 462q-105 0 -171 -95v-237q66 -95 171 -95q83 0 136 59.5t53 153.5t-53 154t-136 60z" />
    <glyph glyph-name="c" unicode="c" horiz-adv-x="494" 
d="M277 507q122 0 191 -103l-36 -29q-57 88 -155 88q-93 0 -144 -59t-51 -155t52 -155t146 -59q100 0 157 87l36 -29q-69 -103 -193 -103q-115 0 -181 72t-66 187t64.5 186.5t179.5 71.5z" />
    <glyph glyph-name="d" unicode="d" 
d="M491 760v-760h-46l-1 72q-65 -82 -179 -82q-102 0 -167 73t-65 185q0 113 65 186t167 73q113 0 177 -78v331h49zM271 462q-83 0 -136 -60t-53 -154t53 -153.5t136 -59.5q105 0 171 95v237q-66 95 -171 95z" />
    <glyph glyph-name="e" unicode="e" horiz-adv-x="523" 
d="M265 507q104 0 164 -71t60 -182v-23h-407q2 -91 53.5 -144t142.5 -53q107 0 167 76l35 -29q-73 -91 -202 -91q-115 0 -180 71.5t-65 186.5q0 113 64.5 186t167.5 73zM265 463q-78 0 -128 -52.5t-55 -136.5h359q-3 84 -50 136.5t-126 52.5z" />
    <glyph glyph-name="f" unicode="f" horiz-adv-x="328" 
d="M256 760q61 0 102 -39l-24 -37q-29 31 -77 31q-44 0 -70.5 -32t-26.5 -82v-104h149v-44h-149v-453h-48v453h-92v44h92v102q0 70 39 115.5t105 45.5z" />
    <glyph glyph-name="g" unicode="g" 
d="M265 507q115 0 179 -80l1 70h46v-492q0 -113 -65 -179t-174 -66q-133 0 -213 101l34 31q69 -87 178 -87q88 0 139.5 53.5t51.5 145.5v66q-64 -80 -177 -80q-102 0 -167 73t-65 185q0 113 65 186t167 73zM271 462q-83 0 -136 -60t-53 -154t53 -153.5t136 -59.5
q105 0 171 95v237q-66 95 -171 95z" />
    <glyph glyph-name="h" unicode="h" horiz-adv-x="570" 
d="M136 760v-333q69 80 172 80q88 0 138.5 -56.5t50.5 -149.5v-301h-48v298q0 72 -41 117t-108 45q-51 0 -89 -23.5t-75 -70.5v-366h-49v760h49z" />
    <glyph glyph-name="i" unicode="i" horiz-adv-x="223" 
d="M136 497v-497h-49v497h49zM112 702q17 0 29.5 -12t12.5 -29q0 -18 -12 -29.5t-30 -11.5q-17 0 -29 11.5t-12 29.5q0 17 12 29t29 12z" />
    <glyph glyph-name="j" unicode="j" horiz-adv-x="223" 
d="M136 497v-584q0 -65 -44 -109t-110 -44q-77 0 -127 52l33 33q38 -40 93 -40q46 0 76 30t30 76v586h49zM112 702q17 0 29.5 -12t12.5 -29q0 -18 -12 -29.5t-30 -11.5q-17 0 -29 11.5t-12 29.5q0 17 12 29t29 12z" />
    <glyph glyph-name="k" unicode="k" horiz-adv-x="504" 
d="M136 760v-670l264 407h57l-152 -229l188 -268h-58l-159 226l-148 -226h-41v760h49z" />
    <glyph glyph-name="l" unicode="l" horiz-adv-x="223" 
d="M136 760v-760h-49v760h49z" />
    <glyph glyph-name="m" unicode="m" horiz-adv-x="909" 
d="M304 507q57 0 98.5 -27t62.5 -75q72 102 190 102q83 0 132.5 -57t49.5 -149v-301h-49v298q0 72 -39 117t-103 45q-92 0 -166 -100q6 -27 6 -56v-304h-48v298q0 72 -39 117t-103 45q-89 0 -160 -92v-368h-49v497h46l1 -70q67 80 170 80z" />
    <glyph glyph-name="n" unicode="n" horiz-adv-x="570" 
d="M308 507q88 0 138.5 -56.5t50.5 -149.5v-301h-48v298q0 72 -41 117t-108 45q-51 0 -89 -23.5t-75 -70.5v-366h-49v497h46l1 -72q71 82 174 82z" />
    <glyph glyph-name="o" unicode="o" horiz-adv-x="562" 
d="M281 507q107 0 177.5 -73.5t70.5 -185.5t-70.5 -185t-177.5 -73q-108 0 -178 73t-70 185t70 185.5t178 73.5zM281 462q-87 0 -143 -60.5t-56 -153.5t56 -153t143 -60q86 0 142.5 60t56.5 153q0 92 -56.5 153t-142.5 61z" />
    <glyph glyph-name="p" unicode="p" 
d="M313 507q102 0 167 -72.5t65 -185.5t-65 -186t-167 -73q-113 0 -177 78v-298h-49v727h46l1 -72q64 82 179 82zM307 462q-105 0 -171 -95v-237q66 -95 171 -95q83 0 136 60t53 154t-53 153.5t-136 59.5z" />
    <glyph glyph-name="q" unicode="q" 
d="M265 507q115 0 179 -82l1 72h46v-727h-49v298q-64 -78 -177 -78q-102 0 -167 73t-65 186t65 185.5t167 72.5zM271 462q-83 0 -136 -59.5t-53 -153.5t53 -154t136 -60q105 0 171 95v237q-66 95 -171 95z" />
    <glyph glyph-name="r" unicode="r" horiz-adv-x="300" 
d="M287 507v-49h-6q-86 0 -145 -93v-365h-49v497h46l1 -73q52 83 153 83z" />
    <glyph glyph-name="s" unicode="s" horiz-adv-x="442" 
d="M220 507q86 0 155 -53l-23 -38q-60 46 -131 46q-54 0 -86 -22.5t-32 -68.5q0 -39 28.5 -58t102.5 -37q88 -20 128 -52.5t40 -87.5q0 -66 -49.5 -106t-130.5 -40q-106 0 -181 60l25 39q65 -54 157 -54q59 0 95 25.5t36 73.5q0 40 -31.5 61t-104.5 38q-88 20 -126 50
t-38 86q0 66 45 102t121 36z" />
    <glyph glyph-name="t" unicode="t" horiz-adv-x="372" 
d="M167 669v-172h171v-44h-171v-306q0 -53 28.5 -82.5t74.5 -29.5q51 0 78 18l19 -39q-37 -24 -99 -24q-69 0 -109 40.5t-40 116.5v306h-105v44h105v172h48z" />
    <glyph glyph-name="u" unicode="u" horiz-adv-x="558" 
d="M471 497v-497h-46l-1 71q-69 -81 -175 -81q-82 0 -129 55.5t-47 147.5v304h49v-302q0 -71 37 -114.5t98 -43.5q55 0 92 23t73 70v367h49z" />
    <glyph glyph-name="v" unicode="v" horiz-adv-x="508" 
d="M494 497l-238 -507h-4l-239 507h54l187 -404l187 404h53z" />
    <glyph glyph-name="w" unicode="w" horiz-adv-x="753" 
d="M739 497l-203 -507h-4l-155 397l-156 -397h-4l-204 507h54l154 -393l154 393h4l153 -393l154 393h53z" />
    <glyph glyph-name="x" unicode="x" horiz-adv-x="467" 
d="M438 497l-173 -243l180 -254h-58l-155 216l-153 -216h-58l180 254l-173 243h58l146 -207l148 207h58z" />
    <glyph glyph-name="y" unicode="y" horiz-adv-x="525" 
d="M503 497l-340 -727h-55l128 266l-214 461h53l187 -406l187 406h54z" />
    <glyph glyph-name="z" unicode="z" horiz-adv-x="427" 
d="M402 497v-4l-298 -449h298v-44h-378v4l297 449h-280v44h361z" />
    <glyph glyph-name="braceleft" unicode="{" horiz-adv-x="329" 
d="M304 699v-44q-64 0 -102.5 -36t-28.5 -119l10 -91q8 -49 -7.5 -76.5t-52.5 -43.5q37 -16 52.5 -43.5t7.5 -76.5l-10 -91q-10 -83 28.5 -119t102.5 -36v-44q-90 0 -142.5 50.5t-35.5 156.5l10 90q8 46 -19 71.5t-85 39.5v4q58 14 85 39.5t19 71.5l-10 90
q-17 106 35.5 156.5t142.5 50.5z" />
    <glyph glyph-name="bar" unicode="|" horiz-adv-x="220" 
d="M134 699v-820h-48v820h48z" />
    <glyph glyph-name="braceright" unicode="}" horiz-adv-x="329" 
d="M25 699q90 0 142.5 -50.5t36.5 -156.5l-11 -90q-8 -46 19 -71.5t85 -39.5v-4q-58 -14 -85 -39.5t-19 -71.5l11 -90q16 -106 -36.5 -156.5t-142.5 -50.5v44q64 0 102 36t28 119l-9 91q-8 49 7.5 76.5t52.5 43.5q-37 16 -52.5 43.5t-7.5 76.5l9 91q10 83 -28 119t-102 36
v44z" />
    <glyph glyph-name="asciitilde" unicode="~" horiz-adv-x="572" 
d="M179 423q36 0 66 -14.5t47.5 -32t44.5 -32t56 -14.5q82 0 113 87l34 -22q-43 -111 -147 -111q-36 0 -66 14.5t-47 32t-44 32t-57 14.5q-82 0 -113 -87l-34 21q20 51 57 81.5t90 30.5z" />
    <glyph glyph-name="exclamdown" unicode="&#xa1;" horiz-adv-x="230" 
d="M92 -242v551h48v-551h-48zM116 424q-18 0 -30 12t-12 29q0 18 12 29.5t30 11.5q17 0 28.5 -11.5t11.5 -29.5q0 -17 -11.5 -29t-28.5 -12z" />
    <glyph glyph-name="cent" unicode="&#xa2;" horiz-adv-x="502" 
d="M299 636v-130q107 -10 169 -102l-36 -29q-57 88 -155 88q-93 0 -144 -59t-51 -155t52 -155t146 -59q100 0 157 87l36 -29q-64 -95 -174 -102v-134h-43v134q-105 7 -164 78t-59 180t59 179.5t164 77.5v130h43z" />
    <glyph glyph-name="sterling" unicode="&#xa3;" horiz-adv-x="558" 
d="M268 748q70 0 120 -38t70 -94l-47 -16q-17 46 -54 73.5t-90 27.5q-73 0 -110 -49t-37 -132q0 -54 17 -131h202v-43h-193q11 -49 11 -91q0 -105 -64 -208h237q66 0 97 31.5t31 101.5h49q0 -180 -171 -180h-319v4q24 41 36 63t27.5 58t20.5 63.5t5.5 65t-7.5 78.5l-3 14
h-73v43h64q-16 72 -16 126q1 111 53 172t144 61z" />
    <glyph glyph-name="currency" unicode="&#xa4;" horiz-adv-x="638" 
d="M557 541l32 -33l-124 -123q39 -50 39 -121q0 -72 -39 -122l124 -123l-32 -32l-124 123q-48 -39 -114 -39t-114 39l-123 -123l-33 32l125 123q-40 51 -40 122q0 70 40 121l-125 123l33 33l123 -124q50 40 114 40t114 -40zM319 417q-62 0 -102 -43.5t-40 -109.5t40 -109
t102 -43q61 0 101.5 43.5t40.5 108.5t-40.5 109t-101.5 44z" />
    <glyph glyph-name="yen" unicode="&#xa5;" horiz-adv-x="622" 
d="M613 734l-257 -381h144v-40h-164v-95h164v-40h-164v-178h-51v178h-163v40h163v95h-163v40h143l-256 381h61l241 -361l241 361h61z" />
    <glyph glyph-name="brokenbar" unicode="&#xa6;" horiz-adv-x="220" 
d="M134 699v-308h-48v308h48zM134 187v-308h-48v308h48z" />
    <glyph glyph-name="section" unicode="&#xa7;" horiz-adv-x="400" 
d="M202 451q-53 0 -87 -34.5t-34 -87.5t34 -87t87 -34t88 34t35 87t-35 87.5t-88 34.5zM211 748q80 0 131 -48l-28 -32q-42 37 -103 37q-50 0 -82.5 -28.5t-32.5 -73.5q0 -74 86 -101q12 -4 40.5 -9t45.5 -12q47 -17 74 -58t27 -94q0 -52 -27 -91.5t-72 -56.5
q84 -36 84 -117q0 -66 -49.5 -110t-126.5 -44q-90 0 -146 59l30 32q46 -48 117 -48q56 0 92 31t36 80q0 66 -81 93q-13 4 -36.5 7.5t-30.5 5.5q-56 14 -89.5 56.5t-33.5 102.5q0 53 27 92.5t74 55.5q-88 38 -88 126q0 63 45 104t117 41z" />
    <glyph glyph-name="dieresis" unicode="&#xa8;" horiz-adv-x="273" 
d="M61 671q16 0 27.5 -11t11.5 -27t-11 -27t-28 -11q-16 0 -27 11t-11 27t11 27t27 11zM211 671q16 0 27.5 -11t11.5 -27t-11.5 -27t-27.5 -11t-27 11t-11 27t11 27t27 11z" />
    <glyph glyph-name="copyright" unicode="&#xa9;" horiz-adv-x="633" 
d="M322 642q70 0 117 -47l-25 -27q-36 38 -92 38t-92 -39t-36 -98q0 -61 36 -99t92 -38q59 0 94 40l25 -26q-45 -50 -119 -50q-72 0 -118.5 48.5t-46.5 124.5q0 75 46.5 124t118.5 49zM317 766q122 0 202.5 -84.5t80.5 -212.5q0 -129 -80.5 -213t-202.5 -84
q-124 0 -203.5 84t-79.5 213q0 128 80 212.5t203 84.5zM317 730q-107 0 -176.5 -74.5t-69.5 -186.5q0 -113 69 -187t177 -74q106 0 175.5 74t69.5 187q0 112 -69.5 186.5t-175.5 74.5z" />
    <glyph glyph-name="ordfeminine" unicode="&#xaa;" horiz-adv-x="420" 
d="M190 744q80 0 124 -55l1 48h40v-349h-40l-1 49q-44 -56 -124 -56q-70 0 -115.5 51t-45.5 130t45.5 130.5t115.5 51.5zM198 706q-55 0 -90.5 -40.5t-35.5 -103.5t35.5 -102.5t90.5 -39.5q71 0 114 62v161q-45 63 -114 63z" />
    <glyph glyph-name="guillemotleft" unicode="&#xab;" horiz-adv-x="438" 
d="M217 458l-151 -202l151 -202h-50l-152 200v4l152 200h50zM423 458l-152 -202l152 -202h-51l-151 200v4l151 200h51z" />
    <glyph glyph-name="logicalnot" unicode="&#xac;" horiz-adv-x="548" 
d="M510 414v-248h-38v212h-434v36h472z" />
    <glyph glyph-name="registered" unicode="&#xae;" horiz-adv-x="633" 
d="M317 766q122 0 202.5 -84.5t80.5 -212.5q0 -129 -80.5 -213t-202.5 -84q-124 0 -203.5 84t-79.5 213q0 128 80 212.5t203 84.5zM317 730q-107 0 -176.5 -74.5t-69.5 -186.5q0 -113 69 -187t177 -74q106 0 175.5 74t69.5 187q0 112 -69.5 186.5t-175.5 74.5zM212 638h100
q55 0 89 -27t34 -77q0 -75 -73 -97l89 -138h-44l-84 131h-73v-131h-38v339zM310 602h-60v-137h60q88 0 88 69q0 68 -88 68z" />
    <glyph glyph-name="macron" unicode="&#xaf;" horiz-adv-x="292" 
d="M268 640v-39h-245v39h245z" />
    <glyph glyph-name="degree" unicode="&#xb0;" horiz-adv-x="322" 
d="M162 747q55 0 91 -36t36 -90q0 -55 -36 -90.5t-91 -35.5q-56 0 -92.5 35.5t-36.5 90.5q0 54 36.5 90t92.5 36zM162 710q-39 0 -64.5 -25.5t-25.5 -63.5q0 -39 25.5 -63.5t64.5 -24.5q38 0 63 24.5t25 63.5q0 38 -25 63.5t-63 25.5z" />
    <glyph glyph-name="plusminus" unicode="&#xb1;" horiz-adv-x="459" 
d="M252 624v-162h163v-47h-163v-163h-46v163h-163v47h163v162h46zM415 164v-46h-372v46h372z" />
    <glyph glyph-name="two.sups" unicode="&#xb2;" horiz-adv-x="346" 
d="M177 821q56 0 91.5 -33.5t35.5 -88.5q0 -39 -14 -69t-45 -66l-114 -131h180v-39h-255v4l156 189q51 58 51 112q0 38 -24 61t-62 23q-72 0 -89 -74l-38 8q22 104 127 104z" />
    <glyph glyph-name="three.sups" unicode="&#xb3;" horiz-adv-x="343" 
d="M176 821q54 0 88 -32.5t34 -82.5q0 -68 -64 -92q82 -27 82 -103q0 -56 -37 -90.5t-97 -34.5q-103 0 -140 96l37 11q15 -33 38.5 -50.5t64.5 -17.5t66.5 24t25.5 64q0 36 -28.5 60t-72.5 24h-49v34h51q34 0 58 19t24 56q0 34 -23 55.5t-59 21.5q-65 0 -90 -64l-37 16
q34 86 128 86z" />
    <glyph glyph-name="acute" unicode="&#xb4;" horiz-adv-x="256" 
d="M223 695l-150 -116h-58l142 116h66z" />
    <glyph glyph-name="mu" unicode="&#xb5;" horiz-adv-x="572" 
d="M485 497v-497h-46l-1 71q-69 -81 -171 -81q-90 0 -131 67v-287h-49v727h49v-302q0 -71 37 -114.5t98 -43.5q55 0 92 23t73 70v367h49z" />
    <glyph glyph-name="paragraph" unicode="&#xb6;" horiz-adv-x="645" 
d="M602 735v-43h-95v-802h-44v802h-117v-802h-45v418h-3q-120 0 -196 52.5t-76 156.5q0 106 74.5 162t197.5 56h304z" />
    <glyph glyph-name="periodcentered" unicode="&#xb7;" horiz-adv-x="151" 
d="M75 298q18 0 30 -12t12 -30q0 -17 -12 -29t-30 -12t-30 12t-12 29q0 18 12 30t30 12z" />
    <glyph glyph-name="cedilla" unicode="&#xb8;" horiz-adv-x="241" 
d="M100 6l35 -2l-11 -69q42 -2 68.5 -26t26.5 -63q0 -45 -29.5 -69.5t-75.5 -24.5q-60 0 -90 37l23 28q24 -30 66 -30q68 0 68 58q0 41 -49 54q-22 4 -46 1l-3 4z" />
    <glyph glyph-name="one.sups" unicode="&#xb9;" horiz-adv-x="245" 
d="M181 821v-427h-42v353l-86 -61l-22 35l148 100h2z" />
    <glyph glyph-name="ordmasculine" unicode="&#xba;" horiz-adv-x="409" 
d="M205 744q75 0 124.5 -52t49.5 -130q0 -79 -49 -130t-125 -51q-77 0 -126.5 51t-49.5 130q0 78 49.5 130t126.5 52zM205 706q-58 0 -95.5 -40.5t-37.5 -103.5q0 -62 37.5 -102t95.5 -40q57 0 94.5 40t37.5 102t-37.5 103t-94.5 41z" />
    <glyph glyph-name="guillemotright" unicode="&#xbb;" horiz-adv-x="438" 
d="M66 458l151 -200v-4l-151 -200h-51l152 202l-152 202h51zM271 458l152 -200v-4l-152 -200h-50l151 202l-151 202h50z" />
    <glyph glyph-name="onequarter" unicode="&#xbc;" horiz-adv-x="690" 
d="M537 734l-364 -734h-48l365 734h47zM181 721v-427h-42v353l-86 -61l-22 35l148 100h2zM601 428v-307h66v-35h-66v-86h-41v87h-202v2l240 339h3zM561 316l-135 -195h135v195z" />
    <glyph glyph-name="onehalf" unicode="&#xbd;" horiz-adv-x="751" 
d="M537 734l-364 -734h-48l365 734h47zM181 721v-427h-42v353l-86 -61l-22 35l148 100h2zM582 427q56 0 91.5 -33.5t35.5 -88.5q0 -39 -14 -69t-45 -66l-114 -131h180v-39h-255v4l156 189q51 58 51 112q0 38 -24 61t-62 23q-72 0 -89 -74l-38 8q22 104 127 104z" />
    <glyph glyph-name="threequarters" unicode="&#xbe;" horiz-adv-x="788" 
d="M635 734l-364 -734h-48l365 734h47zM699 428v-307h66v-35h-66v-86h-41v87h-202v2l240 339h3zM659 316l-135 -195h135v195zM176 721q54 0 88 -32.5t34 -82.5q0 -68 -64 -92q82 -27 82 -103q0 -56 -37 -90.5t-97 -34.5q-103 0 -140 96l37 11q15 -33 38.5 -50.5t64.5 -17.5
t66.5 24t25.5 64q0 36 -28.5 60t-72.5 24h-49v34h51q34 0 58 19t24 56q0 34 -23 55.5t-59 21.5q-65 0 -90 -64l-37 16q34 86 128 86z" />
    <glyph glyph-name="questiondown" unicode="&#xbf;" horiz-adv-x="456" 
d="M236 -255q-86 0 -140 53.5t-54 138.5q0 46 17 83.5t41.5 62t49 47t41.5 49.5t17 58v72h50v-76q0 -37 -17 -68t-41 -54t-48.5 -46t-41.5 -55.5t-17 -72.5q0 -68 40.5 -106.5t103.5 -38.5q121 0 149 125l48 -10q-35 -162 -198 -162zM233 424q-18 0 -30 12t-12 29
q0 18 12 29.5t30 11.5q17 0 29 -11.5t12 -29.5q0 -17 -12 -29t-29 -12z" />
    <glyph glyph-name="Agrave" unicode="&#xc0;" horiz-adv-x="671" 
d="M335 632l-165 -392h331zM337 748l321 -748h-55l-82 194h-372l-81 -194h-55l320 748h4zM233 883l141 -111h-62l-147 111h68z" />
    <glyph glyph-name="Aacute" unicode="&#xc1;" horiz-adv-x="671" 
d="M335 632l-165 -392h331zM337 748l321 -748h-55l-82 194h-372l-81 -194h-55l320 748h4zM498 883l-147 -111h-61l140 111h68z" />
    <glyph glyph-name="Acircumflex" unicode="&#xc2;" horiz-adv-x="671" 
d="M335 632l-165 -392h331zM337 748l321 -748h-55l-82 194h-372l-81 -194h-55l320 748h4zM335 906l143 -135h-53l-90 85l-91 -85h-53z" />
    <glyph glyph-name="Atilde" unicode="&#xc3;" horiz-adv-x="671" 
d="M335 632l-165 -392h331zM337 748l321 -748h-55l-82 194h-372l-81 -194h-55l320 748h4zM270 899q24 0 43.5 -14t30.5 -31t26.5 -31t31.5 -14q47 0 47 83h37q0 -60 -23.5 -90.5t-62.5 -30.5q-24 0 -43.5 14t-30 30.5t-26 30.5t-31.5 14q-47 0 -47 -83h-38q0 61 23.5 91.5
t62.5 30.5z" />
    <glyph glyph-name="Adieresis" unicode="&#xc4;" horiz-adv-x="671" 
d="M335 632l-165 -392h331zM337 748l321 -748h-55l-82 194h-372l-81 -194h-55l320 748h4zM260 860q16 0 27.5 -11t11.5 -27t-11 -27t-28 -11q-16 0 -27 11t-11 27t11 27t27 11zM410 860q16 0 27.5 -11t11.5 -27t-11.5 -27t-27.5 -11t-27 11t-11 27t11 27t27 11z" />
    <glyph glyph-name="Aring" unicode="&#xc5;" horiz-adv-x="671" 
d="M335 632l-165 -392h331zM337 748l321 -748h-55l-82 194h-372l-81 -194h-55l320 748h4zM335 962q41 0 69 -27.5t28 -68.5t-28 -68t-69 -27t-69 27t-28 68t28 68.5t69 27.5zM335 928q-26 0 -44 -18t-18 -44t18 -43t44 -17t44 17t18 43t-18 44t-44 18z" />
    <glyph glyph-name="AE" unicode="&#xc6;" horiz-adv-x="850" 
d="M815 735v-48h-444l121 -291h280v-47h-261l126 -301h186v-48h-221l-81 195h-371l-81 -195h-56l311 735h491zM335 641l-166 -402h333z" />
    <glyph glyph-name="Ccedilla" unicode="&#xc7;" horiz-adv-x="679" 
d="M399 748q151 0 254 -103l-33 -38q-90 93 -221 93q-136 0 -223.5 -94.5t-87.5 -238.5q0 -145 87 -238.5t224 -93.5q138 0 228 100l33 -39q-101 -109 -261 -109q-1 0 -4 0.5t-5 0.5l-8 -53q42 -2 68.5 -26t26.5 -63q0 -45 -29.5 -69.5t-75.5 -24.5q-60 0 -90 37l23 28
q24 -30 66 -30q68 0 68 58q0 41 -49 54q-22 4 -46 1l-3 4l14 85q-142 15 -230.5 120t-88.5 258q0 165 102.5 273t260.5 108z" />
    <glyph glyph-name="Egrave" unicode="&#xc8;" horiz-adv-x="561" 
d="M526 735v-48h-384v-291h340v-47h-340v-301h392v-48h-443v735h435zM212 883l141 -111h-62l-147 111h68z" />
    <glyph glyph-name="Eacute" unicode="&#xc9;" horiz-adv-x="561" 
d="M526 735v-48h-384v-291h340v-47h-340v-301h392v-48h-443v735h435zM477 883l-147 -111h-61l140 111h68z" />
    <glyph glyph-name="Ecircumflex" unicode="&#xca;" horiz-adv-x="561" 
d="M526 735v-48h-384v-291h340v-47h-340v-301h392v-48h-443v735h435zM313 906l143 -135h-53l-90 85l-91 -85h-53z" />
    <glyph glyph-name="Edieresis" unicode="&#xcb;" horiz-adv-x="561" 
d="M526 735v-48h-384v-291h340v-47h-340v-301h392v-48h-443v735h435zM238 860q16 0 27.5 -11t11.5 -27t-11 -27t-28 -11q-16 0 -27 11t-11 27t11 27t27 11zM388 860q16 0 27.5 -11t11.5 -27t-11.5 -27t-27.5 -11t-27 11t-11 27t11 27t27 11z" />
    <glyph glyph-name="Igrave" unicode="&#xcc;" horiz-adv-x="233" 
d="M142 735v-735h-51v735h51zM15 883l141 -111h-62l-147 111h68z" />
    <glyph glyph-name="Iacute" unicode="&#xcd;" horiz-adv-x="233" 
d="M142 735v-735h-51v735h51zM279 883l-147 -111h-61l140 111h68z" />
    <glyph glyph-name="Icircumflex" unicode="&#xce;" horiz-adv-x="233" 
d="M142 735v-735h-51v735h51zM117 906l143 -135h-53l-90 85l-91 -85h-53z" />
    <glyph glyph-name="Idieresis" unicode="&#xcf;" horiz-adv-x="233" 
d="M142 735v-735h-51v735h51zM42 860q16 0 27.5 -11t11.5 -27t-11 -27t-28 -11q-16 0 -27 11t-11 27t11 27t27 11zM192 860q16 0 27.5 -11t11.5 -27t-11.5 -27t-27.5 -11t-27 11t-11 27t11 27t27 11z" />
    <glyph glyph-name="Eth" unicode="&#xd0;" horiz-adv-x="745" 
d="M320 735q183 0 285.5 -96.5t102.5 -270.5t-102 -271t-286 -97h-210v357h-91v39h91v339h210zM319 686h-158v-290h126v-39h-126v-309h158q162 0 250 84t88 236q0 151 -89 234.5t-249 83.5z" />
    <glyph glyph-name="Ntilde" unicode="&#xd1;" horiz-adv-x="722" 
d="M631 735v-748h-4l-485 627v-614h-51v748h4l485 -626v613h51zM296 899q24 0 43.5 -14t30.5 -31t26.5 -31t31.5 -14q47 0 47 83h37q0 -60 -23.5 -90.5t-62.5 -30.5q-24 0 -43.5 14t-30 30.5t-26 30.5t-31.5 14q-47 0 -47 -83h-38q0 61 23.5 91.5t62.5 30.5z" />
    <glyph glyph-name="Ograve" unicode="&#xd2;" horiz-adv-x="799" 
d="M399 748q157 0 260 -108.5t103 -272.5q0 -165 -102.5 -272.5t-260.5 -107.5t-260.5 107.5t-102.5 272.5t102.5 273t260.5 108zM399 700q-136 0 -223.5 -94.5t-87.5 -238.5t87.5 -238t223.5 -94t224 94t88 238t-88.5 238.5t-223.5 94.5zM297 893l141 -111h-62l-147 111h68
z" />
    <glyph glyph-name="Oacute" unicode="&#xd3;" horiz-adv-x="799" 
d="M399 748q157 0 260 -108.5t103 -272.5q0 -165 -102.5 -272.5t-260.5 -107.5t-260.5 107.5t-102.5 272.5t102.5 273t260.5 108zM399 700q-136 0 -223.5 -94.5t-87.5 -238.5t87.5 -238t223.5 -94t224 94t88 238t-88.5 238.5t-223.5 94.5zM562 893l-147 -111h-61l140 111h68
z" />
    <glyph glyph-name="Ocircumflex" unicode="&#xd4;" horiz-adv-x="799" 
d="M399 748q157 0 260 -108.5t103 -272.5q0 -165 -102.5 -272.5t-260.5 -107.5t-260.5 107.5t-102.5 272.5t102.5 273t260.5 108zM399 700q-136 0 -223.5 -94.5t-87.5 -238.5t87.5 -238t223.5 -94t224 94t88 238t-88.5 238.5t-223.5 94.5zM398 916l143 -135h-53l-90 85
l-91 -85h-53z" />
    <glyph glyph-name="Otilde" unicode="&#xd5;" horiz-adv-x="799" 
d="M399 748q157 0 260 -108.5t103 -272.5q0 -165 -102.5 -272.5t-260.5 -107.5t-260.5 107.5t-102.5 272.5t102.5 273t260.5 108zM399 700q-136 0 -223.5 -94.5t-87.5 -238.5t87.5 -238t223.5 -94t224 94t88 238t-88.5 238.5t-223.5 94.5zM334 909q24 0 43.5 -14t30.5 -31
t26.5 -31t31.5 -14q47 0 47 83h37q0 -60 -23.5 -90.5t-62.5 -30.5q-24 0 -43.5 14t-30 30.5t-26 30.5t-31.5 14q-47 0 -47 -83h-38q0 61 23.5 91.5t62.5 30.5z" />
    <glyph glyph-name="Odieresis" unicode="&#xd6;" horiz-adv-x="799" 
d="M399 748q157 0 260 -108.5t103 -272.5q0 -165 -102.5 -272.5t-260.5 -107.5t-260.5 107.5t-102.5 272.5t102.5 273t260.5 108zM399 700q-136 0 -223.5 -94.5t-87.5 -238.5t87.5 -238t223.5 -94t224 94t88 238t-88.5 238.5t-223.5 94.5zM323 870q16 0 27.5 -11t11.5 -27
t-11 -27t-28 -11q-16 0 -27 11t-11 27t11 27t27 11zM473 870q16 0 27.5 -11t11.5 -27t-11.5 -27t-27.5 -11t-27 11t-11 27t11 27t27 11z" />
    <glyph glyph-name="multiply" unicode="&#xd7;" horiz-adv-x="418" 
d="M334 507l33 -32l-126 -125l126 -125l-33 -32l-124 125l-126 -125l-33 32l126 125l-125 125l33 32l125 -124z" />
    <glyph glyph-name="Oslash" unicode="&#xd8;" horiz-adv-x="799" 
d="M399 748q88 0 162 -37l57 104h48l-68 -125q77 -50 120.5 -134.5t43.5 -188.5q0 -165 -102.5 -272.5t-260.5 -107.5q-88 0 -163 36l-56 -103h-49l67 124q-76 50 -119 134.5t-43 188.5q0 165 102.5 273t260.5 108zM711 367q0 89 -36.5 162.5t-100.5 117.5l-315 -581
q64 -31 140 -31q136 0 224 94t88 238zM399 700q-136 0 -223.5 -94.5t-87.5 -238.5q0 -90 35.5 -163t98.5 -116l316 580q-66 32 -139 32z" />
    <glyph glyph-name="Ugrave" unicode="&#xd9;" horiz-adv-x="684" 
d="M602 735v-481q0 -125 -67 -196t-193 -71q-127 0 -193.5 71t-66.5 196v481h51v-480q0 -103 53.5 -161.5t155.5 -58.5t155.5 58.5t53.5 161.5v480h51zM240 883l141 -111h-62l-147 111h68z" />
    <glyph glyph-name="Uacute" unicode="&#xda;" horiz-adv-x="684" 
d="M602 735v-481q0 -125 -67 -196t-193 -71q-127 0 -193.5 71t-66.5 196v481h51v-480q0 -103 53.5 -161.5t155.5 -58.5t155.5 58.5t53.5 161.5v480h51zM505 883l-147 -111h-61l140 111h68z" />
    <glyph glyph-name="Ucircumflex" unicode="&#xdb;" horiz-adv-x="684" 
d="M602 735v-481q0 -125 -67 -196t-193 -71q-127 0 -193.5 71t-66.5 196v481h51v-480q0 -103 53.5 -161.5t155.5 -58.5t155.5 58.5t53.5 161.5v480h51zM342 906l143 -135h-53l-90 85l-91 -85h-53z" />
    <glyph glyph-name="Udieresis" unicode="&#xdc;" horiz-adv-x="684" 
d="M602 735v-481q0 -125 -67 -196t-193 -71q-127 0 -193.5 71t-66.5 196v481h51v-480q0 -103 53.5 -161.5t155.5 -58.5t155.5 58.5t53.5 161.5v480h51zM267 860q16 0 27.5 -11t11.5 -27t-11 -27t-28 -11q-16 0 -27 11t-11 27t11 27t27 11zM417 860q16 0 27.5 -11t11.5 -27
t-11.5 -27t-27.5 -11t-27 11t-11 27t11 27t27 11z" />
    <glyph glyph-name="Yacute" unicode="&#xdd;" horiz-adv-x="623" 
d="M613 734l-276 -413v-321h-51v321l-276 413h60l241 -361l241 361h61zM474 883l-147 -111h-61l140 111h68z" />
    <glyph glyph-name="Thorn" unicode="&#xde;" horiz-adv-x="527" 
d="M142 735v-142h137q91 0 154.5 -52t63.5 -141t-63.5 -141t-154.5 -52h-137v-207h-51v735h51zM276 546h-134v-292h134q71 0 120 39t49 107t-49 107t-120 39z" />
    <glyph glyph-name="germandbls" unicode="&#xdf;" horiz-adv-x="637" 
d="M303 748q85 0 139 -54.5t54 -136.5q0 -116 -110 -156q63 -14 111.5 -63t48.5 -136q0 -96 -59 -155.5t-159 -59.5q-66 0 -111 29l16 45q46 -27 94 -27q73 0 120 44.5t47 123.5q0 60 -31.5 101t-88.5 58q-49 15 -98 15v38q40 0 85 18q84 35 84 122q0 67 -41.5 107
t-100.5 40q-72 0 -112.5 -39.5t-40.5 -119.5v-542h-50v541q0 99 56.5 153t146.5 54z" />
    <glyph glyph-name="agrave" unicode="&#xe0;" 
d="M267 507q115 0 179 -80l1 70h46v-497h-46l-1 72q-65 -82 -179 -82q-102 0 -167 73t-65 185q0 113 65 186t167 73zM273 462q-83 0 -136 -60t-53 -154t53 -153.5t136 -59.5q105 0 171 95v237q-66 95 -171 95zM187 695l143 -116h-59l-150 116h66z" />
    <glyph glyph-name="aacute" unicode="&#xe1;" 
d="M267 507q115 0 179 -80l1 70h46v-497h-46l-1 72q-65 -82 -179 -82q-102 0 -167 73t-65 185q0 113 65 186t167 73zM273 462q-83 0 -136 -60t-53 -154t53 -153.5t136 -59.5q105 0 171 95v237q-66 95 -171 95zM457 695l-150 -116h-58l142 116h66z" />
    <glyph glyph-name="acircumflex" unicode="&#xe2;" 
d="M267 507q115 0 179 -80l1 70h46v-497h-46l-1 72q-65 -82 -179 -82q-102 0 -167 73t-65 185q0 113 65 186t167 73zM273 462q-83 0 -136 -60t-53 -154t53 -153.5t136 -59.5q105 0 171 95v237q-66 95 -171 95zM290 719l142 -142h-52l-90 86l-89 -86h-53z" />
    <glyph glyph-name="atilde" unicode="&#xe3;" 
d="M267 507q115 0 179 -80l1 70h46v-497h-46l-1 72q-65 -82 -179 -82q-102 0 -167 73t-65 185q0 113 65 186t167 73zM273 462q-83 0 -136 -60t-53 -154t53 -153.5t136 -59.5q105 0 171 95v237q-66 95 -171 95zM226 701q24 0 43.5 -14t30.5 -31t26.5 -31t31.5 -14q47 0 47 83
h37q0 -60 -23.5 -90.5t-62.5 -30.5q-24 0 -43.5 14t-30 30.5t-26 30.5t-31.5 14q-47 0 -47 -83h-38q0 61 23.5 91.5t62.5 30.5z" />
    <glyph glyph-name="adieresis" unicode="&#xe4;" 
d="M267 507q115 0 179 -80l1 70h46v-497h-46l-1 72q-65 -82 -179 -82q-102 0 -167 73t-65 185q0 113 65 186t167 73zM273 462q-83 0 -136 -60t-53 -154t53 -153.5t136 -59.5q105 0 171 95v237q-66 95 -171 95zM216 671q16 0 27.5 -11t11.5 -27t-11 -27t-28 -11q-16 0 -27 11
t-11 27t11 27t27 11zM366 671q16 0 27.5 -11t11.5 -27t-11.5 -27t-27.5 -11t-27 11t-11 27t11 27t27 11z" />
    <glyph glyph-name="aring" unicode="&#xe5;" 
d="M267 507q115 0 179 -80l1 70h46v-497h-46l-1 72q-65 -82 -179 -82q-102 0 -167 73t-65 185q0 113 65 186t167 73zM273 462q-83 0 -136 -60t-53 -154t53 -153.5t136 -59.5q105 0 171 95v237q-66 95 -171 95zM291 765q41 0 69 -28t28 -69t-27.5 -67.5t-69.5 -26.5
t-69.5 26.5t-27.5 67.5t28 69t69 28zM291 730q-26 0 -44 -18t-18 -44t18 -43t44 -17t44 17t18 43t-18 44t-44 18z" />
    <glyph glyph-name="ae" unicode="&#xe6;" horiz-adv-x="941" 
d="M681 507q104 0 164.5 -71t60.5 -183v-22h-409q3 -91 53.5 -144t143.5 -53q107 0 168 76l35 -29q-73 -91 -202 -91q-74 0 -126.5 29.5t-78.5 81.5l-1 -101h-44l-1 72q-65 -82 -179 -82q-102 0 -167 73t-65 185q0 113 65 186t167 73q115 0 179 -80l1 70h44l2 -103
q60 113 190 113zM680 463q-78 0 -128.5 -51.5t-55.5 -137.5h362q-3 84 -50.5 136.5t-127.5 52.5zM271 462q-83 0 -136 -60t-53 -154t53 -153.5t136 -59.5q105 0 171 95v237q-66 95 -171 95z" />
    <glyph glyph-name="ccedilla" unicode="&#xe7;" horiz-adv-x="494" 
d="M277 507q122 0 191 -103l-36 -29q-57 88 -155 88q-93 0 -144 -59t-51 -155t52 -155t146 -59q100 0 157 87l36 -29q-69 -103 -193 -103h-14l-9 -55q42 -2 68.5 -26t26.5 -63q0 -45 -29.5 -69.5t-75.5 -24.5q-60 0 -90 37l23 28q24 -30 66 -30q68 0 68 58q0 41 -49 54
q-22 4 -46 1l-3 4l15 90q-94 15 -146 84t-52 171q0 115 64.5 186.5t179.5 71.5z" />
    <glyph glyph-name="egrave" unicode="&#xe8;" horiz-adv-x="523" 
d="M265 507q104 0 164 -71t60 -182v-23h-407q2 -91 53.5 -144t142.5 -53q107 0 167 76l35 -29q-73 -91 -202 -91q-115 0 -180 71.5t-65 186.5q0 113 64.5 186t167.5 73zM265 463q-78 0 -128 -52.5t-55 -136.5h359q-3 84 -50 136.5t-126 52.5zM161 695l143 -116h-59l-150 116
h66z" />
    <glyph glyph-name="eacute" unicode="&#xe9;" horiz-adv-x="523" 
d="M265 507q104 0 164 -71t60 -182v-23h-407q2 -91 53.5 -144t142.5 -53q107 0 167 76l35 -29q-73 -91 -202 -91q-115 0 -180 71.5t-65 186.5q0 113 64.5 186t167.5 73zM265 463q-78 0 -128 -52.5t-55 -136.5h359q-3 84 -50 136.5t-126 52.5zM431 695l-150 -116h-58l142 116
h66z" />
    <glyph glyph-name="ecircumflex" unicode="&#xea;" horiz-adv-x="523" 
d="M265 507q104 0 164 -71t60 -182v-23h-407q2 -91 53.5 -144t142.5 -53q107 0 167 76l35 -29q-73 -91 -202 -91q-115 0 -180 71.5t-65 186.5q0 113 64.5 186t167.5 73zM265 463q-78 0 -128 -52.5t-55 -136.5h359q-3 84 -50 136.5t-126 52.5zM264 719l142 -142h-52l-90 86
l-89 -86h-53z" />
    <glyph glyph-name="edieresis" unicode="&#xeb;" horiz-adv-x="523" 
d="M265 507q104 0 164 -71t60 -182v-23h-407q2 -91 53.5 -144t142.5 -53q107 0 167 76l35 -29q-73 -91 -202 -91q-115 0 -180 71.5t-65 186.5q0 113 64.5 186t167.5 73zM265 463q-78 0 -128 -52.5t-55 -136.5h359q-3 84 -50 136.5t-126 52.5zM189 671q16 0 27.5 -11
t11.5 -27t-11 -27t-28 -11q-16 0 -27 11t-11 27t11 27t27 11zM339 671q16 0 27.5 -11t11.5 -27t-11.5 -27t-27.5 -11t-27 11t-11 27t11 27t27 11z" />
    <glyph glyph-name="igrave" unicode="&#xec;" horiz-adv-x="223" 
d="M8 695l143 -116h-59l-150 116h66zM136 497v-497h-49v497h49z" />
    <glyph glyph-name="iacute" unicode="&#xed;" horiz-adv-x="223" 
d="M278 695l-150 -116h-58l142 116h66zM136 497v-497h-49v497h49z" />
    <glyph glyph-name="icircumflex" unicode="&#xee;" horiz-adv-x="223" 
d="M136 497v-497h-49v497h49zM111 719l142 -142h-52l-90 86l-89 -86h-53z" />
    <glyph glyph-name="idieresis" unicode="&#xef;" horiz-adv-x="223" 
d="M37 671q16 0 27.5 -11t11.5 -27t-11 -27t-28 -11q-16 0 -27 11t-11 27t11 27t27 11zM187 671q16 0 27.5 -11t11.5 -27t-11.5 -27t-27.5 -11t-27 11t-11 27t11 27t27 11zM136 497v-497h-49v497h49z" />
    <glyph glyph-name="eth" unicode="&#xf0;" horiz-adv-x="549" 
d="M275 483q32 0 69 -10l-90 121h-167v40h137l-94 126h60l93 -126h170v-40h-140l140 -187q63 -71 63 -171q0 -107 -68.5 -176.5t-172.5 -69.5q-105 0 -172.5 69.5t-67.5 176.5t67.5 177t172.5 70zM275 440q-83 0 -137.5 -58t-54.5 -146t54.5 -145.5t137.5 -57.5t137.5 57.5
t54.5 145.5t-54.5 146t-137.5 58z" />
    <glyph glyph-name="ntilde" unicode="&#xf1;" horiz-adv-x="570" 
d="M308 507q88 0 138.5 -56.5t50.5 -149.5v-301h-48v298q0 72 -41 117t-108 45q-51 0 -89 -23.5t-75 -70.5v-366h-49v497h46l1 -72q71 82 174 82zM227 701q24 0 43.5 -14t30.5 -31t26.5 -31t31.5 -14q47 0 47 83h37q0 -60 -23.5 -90.5t-62.5 -30.5q-24 0 -43.5 14t-30 30.5
t-26 30.5t-31.5 14q-47 0 -47 -83h-38q0 61 23.5 91.5t62.5 30.5z" />
    <glyph glyph-name="ograve" unicode="&#xf2;" horiz-adv-x="562" 
d="M281 507q107 0 177.5 -73.5t70.5 -185.5t-70.5 -185t-177.5 -73q-108 0 -178 73t-70 185t70 185.5t178 73.5zM281 462q-87 0 -143 -60.5t-56 -153.5t56 -153t143 -60q86 0 142.5 60t56.5 153q0 92 -56.5 153t-142.5 61zM177 695l143 -116h-59l-150 116h66z" />
    <glyph glyph-name="oacute" unicode="&#xf3;" horiz-adv-x="562" 
d="M281 507q107 0 177.5 -73.5t70.5 -185.5t-70.5 -185t-177.5 -73q-108 0 -178 73t-70 185t70 185.5t178 73.5zM281 462q-87 0 -143 -60.5t-56 -153.5t56 -153t143 -60q86 0 142.5 60t56.5 153q0 92 -56.5 153t-142.5 61zM447 695l-150 -116h-58l142 116h66z" />
    <glyph glyph-name="ocircumflex" unicode="&#xf4;" horiz-adv-x="562" 
d="M281 507q107 0 177.5 -73.5t70.5 -185.5t-70.5 -185t-177.5 -73q-108 0 -178 73t-70 185t70 185.5t178 73.5zM281 462q-87 0 -143 -60.5t-56 -153.5t56 -153t143 -60q86 0 142.5 60t56.5 153q0 92 -56.5 153t-142.5 61zM280 719l142 -142h-52l-90 86l-89 -86h-53z" />
    <glyph glyph-name="otilde" unicode="&#xf5;" horiz-adv-x="562" 
d="M281 507q107 0 177.5 -73.5t70.5 -185.5t-70.5 -185t-177.5 -73q-108 0 -178 73t-70 185t70 185.5t178 73.5zM281 462q-87 0 -143 -60.5t-56 -153.5t56 -153t143 -60q86 0 142.5 60t56.5 153q0 92 -56.5 153t-142.5 61zM216 701q24 0 43.5 -14t30.5 -31t26.5 -31
t31.5 -14q47 0 47 83h37q0 -60 -23.5 -90.5t-62.5 -30.5q-24 0 -43.5 14t-30 30.5t-26 30.5t-31.5 14q-47 0 -47 -83h-38q0 61 23.5 91.5t62.5 30.5z" />
    <glyph glyph-name="odieresis" unicode="&#xf6;" horiz-adv-x="562" 
d="M281 507q107 0 177.5 -73.5t70.5 -185.5t-70.5 -185t-177.5 -73q-108 0 -178 73t-70 185t70 185.5t178 73.5zM281 462q-87 0 -143 -60.5t-56 -153.5t56 -153t143 -60q86 0 142.5 60t56.5 153q0 92 -56.5 153t-142.5 61zM205 671q16 0 27.5 -11t11.5 -27t-11 -27t-28 -11
q-16 0 -27 11t-11 27t11 27t27 11zM355 671q16 0 27.5 -11t11.5 -27t-11.5 -27t-27.5 -11t-27 11t-11 27t11 27t27 11z" />
    <glyph glyph-name="divide" unicode="&#xf7;" horiz-adv-x="459" 
d="M229 564q17 0 29 -11.5t12 -29.5q0 -17 -12 -28.5t-29 -11.5t-28.5 11.5t-11.5 28.5t11.5 29t28.5 12zM229 217q17 0 29 -11.5t12 -29.5q0 -17 -12 -28.5t-29 -11.5t-28.5 11.5t-11.5 28.5t11.5 29t28.5 12zM415 373v-46h-372v46h372z" />
    <glyph glyph-name="oslash" unicode="&#xf8;" horiz-adv-x="562" 
d="M281 507q57 0 108 -24l45 84h41l-55 -101q51 -34 80 -91t29 -127q0 -112 -70.5 -185t-177.5 -73q-57 0 -107 22l-44 -82h-41l54 99q-52 34 -81 91t-29 128q0 112 70 185.5t178 73.5zM281 464q-87 0 -144 -61.5t-57 -154.5q0 -119 84 -179l204 376q-41 19 -87 19zM481 248
q0 116 -83 178l-203 -375q39 -18 86 -18q87 0 143.5 60.5t56.5 154.5z" />
    <glyph glyph-name="ugrave" unicode="&#xf9;" horiz-adv-x="558" 
d="M471 497v-497h-46l-1 71q-69 -81 -175 -81q-82 0 -129 55.5t-47 147.5v304h49v-302q0 -71 37 -114.5t98 -43.5q55 0 92 23t73 70v367h49zM167 695l143 -116h-59l-150 116h66z" />
    <glyph glyph-name="uacute" unicode="&#xfa;" horiz-adv-x="558" 
d="M471 497v-497h-46l-1 71q-69 -81 -175 -81q-82 0 -129 55.5t-47 147.5v304h49v-302q0 -71 37 -114.5t98 -43.5q55 0 92 23t73 70v367h49zM438 695l-150 -116h-58l142 116h66z" />
    <glyph glyph-name="ucircumflex" unicode="&#xfb;" horiz-adv-x="558" 
d="M471 497v-497h-46l-1 71q-69 -81 -175 -81q-82 0 -129 55.5t-47 147.5v304h49v-302q0 -71 37 -114.5t98 -43.5q55 0 92 23t73 70v367h49zM271 719l142 -142h-52l-90 86l-89 -86h-53z" />
    <glyph glyph-name="udieresis" unicode="&#xfc;" horiz-adv-x="558" 
d="M471 497v-497h-46l-1 71q-69 -81 -175 -81q-82 0 -129 55.5t-47 147.5v304h49v-302q0 -71 37 -114.5t98 -43.5q55 0 92 23t73 70v367h49zM196 671q16 0 27.5 -11t11.5 -27t-11 -27t-28 -11q-16 0 -27 11t-11 27t11 27t27 11zM346 671q16 0 27.5 -11t11.5 -27t-11.5 -27
t-27.5 -11t-27 11t-11 27t11 27t27 11z" />
    <glyph glyph-name="yacute" unicode="&#xfd;" horiz-adv-x="525" 
d="M503 497l-340 -727h-55l128 266l-214 461h53l187 -406l187 406h54zM426 695l-150 -116h-58l142 116h66z" />
    <glyph glyph-name="thorn" unicode="&#xfe;" 
d="M136 760v-332q64 79 177 79q102 0 167 -72.5t65 -185.5t-65 -186t-167 -73q-113 0 -177 78v-298h-49v990h49zM307 462q-105 0 -171 -95v-237q66 -95 171 -95q83 0 136 60t53 154t-53 153.5t-136 59.5z" />
    <glyph glyph-name="ydieresis" unicode="&#xff;" horiz-adv-x="525" 
d="M503 497l-340 -727h-55l128 266l-214 461h53l187 -406l187 406h54zM184 671q16 0 27.5 -11t11.5 -27t-11 -27t-28 -11q-16 0 -27 11t-11 27t11 27t27 11zM334 671q16 0 27.5 -11t11.5 -27t-11.5 -27t-27.5 -11t-27 11t-11 27t11 27t27 11z" />
    <glyph glyph-name="Amacron" unicode="&#x100;" horiz-adv-x="671" 
d="M335 632l-165 -392h331zM337 748l321 -748h-55l-82 194h-372l-81 -194h-55l320 748h4zM457 830v-39h-245v39h245z" />
    <glyph glyph-name="amacron" unicode="&#x101;" 
d="M267 507q115 0 179 -80l1 70h46v-497h-46l-1 72q-65 -82 -179 -82q-102 0 -167 73t-65 185q0 113 65 186t167 73zM273 462q-83 0 -136 -60t-53 -154t53 -153.5t136 -59.5q105 0 171 95v237q-66 95 -171 95zM413 640v-39h-245v39h245z" />
    <glyph glyph-name="Abreve" unicode="&#x102;" horiz-adv-x="671" 
d="M335 632l-165 -392h331zM337 748l321 -748h-55l-82 194h-372l-81 -194h-55l320 748h4zM474 903q0 -56 -40 -93t-99 -37q-60 0 -100 37t-40 93h39q0 -39 29 -65.5t72 -26.5t71.5 26.5t28.5 65.5h39z" />
    <glyph glyph-name="abreve" unicode="&#x103;" 
d="M267 507q115 0 179 -80l1 70h46v-497h-46l-1 72q-65 -82 -179 -82q-102 0 -167 73t-65 185q0 113 65 186t167 73zM273 462q-83 0 -136 -60t-53 -154t53 -153.5t136 -59.5q105 0 171 95v237q-66 95 -171 95zM430 712q0 -57 -40 -94.5t-99 -37.5q-60 0 -100 37.5t-40 94.5
h40q0 -40 28 -66.5t72 -26.5q43 0 71.5 26.5t28.5 66.5h39z" />
    <glyph glyph-name="Aogonek" unicode="&#x104;" horiz-adv-x="671" 
d="M337 748l321 -748h-13q-49 -20 -49 -72q0 -38 23 -59t60 -21q20 0 32 6l12 -34q-15 -7 -45 -7q-54 0 -87 31t-33 84q0 55 40 84l-77 182h-372l-81 -194h-55l320 748h4zM335 632l-165 -392h331z" />
    <glyph glyph-name="aogonek" unicode="&#x105;" 
d="M267 507q115 0 179 -80l1 70h46v-497h-6q-49 -20 -49 -72q0 -38 23 -59t60 -21q20 0 32 6l12 -34q-15 -7 -45 -7q-54 0 -87 31t-33 84q0 60 47 89l-1 55q-65 -82 -179 -82q-102 0 -167 73t-65 185q0 113 65 186t167 73zM273 462q-83 0 -136 -60t-53 -154t53 -153.5
t136 -59.5q105 0 171 95v237q-66 95 -171 95z" />
    <glyph glyph-name="Cacute" unicode="&#x106;" horiz-adv-x="679" 
d="M399 748q151 0 254 -103l-33 -38q-90 93 -221 93q-136 0 -223.5 -94.5t-87.5 -238.5q0 -145 87 -238.5t224 -93.5q138 0 228 100l33 -39q-101 -109 -261 -109q-159 0 -261 107.5t-102 272.5t102.5 273t260.5 108zM555 893l-147 -111h-61l140 111h68z" />
    <glyph glyph-name="cacute" unicode="&#x107;" horiz-adv-x="494" 
d="M277 507q122 0 191 -103l-36 -29q-57 88 -155 88q-93 0 -144 -59t-51 -155t52 -155t146 -59q100 0 157 87l36 -29q-69 -103 -193 -103q-115 0 -181 72t-66 187t64.5 186.5t179.5 71.5zM440 695l-150 -116h-58l142 116h66z" />
    <glyph glyph-name="Ccircumflex" unicode="&#x108;" horiz-adv-x="679" 
d="M399 748q151 0 254 -103l-33 -38q-90 93 -221 93q-136 0 -223.5 -94.5t-87.5 -238.5q0 -145 87 -238.5t224 -93.5q138 0 228 100l33 -39q-101 -109 -261 -109q-159 0 -261 107.5t-102 272.5t102.5 273t260.5 108zM392 916l143 -135h-53l-90 85l-91 -85h-53z" />
    <glyph glyph-name="ccircumflex" unicode="&#x109;" horiz-adv-x="494" 
d="M277 507q122 0 191 -103l-36 -29q-57 88 -155 88q-93 0 -144 -59t-51 -155t52 -155t146 -59q100 0 157 87l36 -29q-69 -103 -193 -103q-115 0 -181 72t-66 187t64.5 186.5t179.5 71.5zM273 719l142 -142h-52l-90 86l-89 -86h-53z" />
    <glyph glyph-name="Cdotaccent" unicode="&#x10a;" horiz-adv-x="679" 
d="M399 748q151 0 254 -103l-33 -38q-90 93 -221 93q-136 0 -223.5 -94.5t-87.5 -238.5q0 -145 87 -238.5t224 -93.5q138 0 228 100l33 -39q-101 -109 -261 -109q-159 0 -261 107.5t-102 272.5t102.5 273t260.5 108zM392 863q17 0 28.5 -11.5t11.5 -28.5q0 -16 -11.5 -27.5
t-28.5 -11.5t-28.5 11t-11.5 28t11.5 28.5t28.5 11.5z" />
    <glyph glyph-name="cdotaccent" unicode="&#x10b;" horiz-adv-x="494" 
d="M277 507q122 0 191 -103l-36 -29q-57 88 -155 88q-93 0 -144 -59t-51 -155t52 -155t146 -59q100 0 157 87l36 -29q-69 -103 -193 -103q-115 0 -181 72t-66 187t64.5 186.5t179.5 71.5zM273 693q18 0 30 -12t12 -29q0 -18 -12 -29.5t-30 -11.5q-17 0 -29 11.5t-12 29.5
q0 17 12 29t29 12z" />
    <glyph glyph-name="Ccaron" unicode="&#x10c;" horiz-adv-x="679" 
d="M399 748q151 0 254 -103l-33 -38q-90 93 -221 93q-136 0 -223.5 -94.5t-87.5 -238.5q0 -145 87 -238.5t224 -93.5q138 0 228 100l33 -39q-101 -109 -261 -109q-159 0 -261 107.5t-102 272.5t102.5 273t260.5 108zM535 910l-143 -135l-144 135h53l91 -85l90 85h53z" />
    <glyph glyph-name="ccaron" unicode="&#x10d;" horiz-adv-x="494" 
d="M277 507q122 0 191 -103l-36 -29q-57 88 -155 88q-93 0 -144 -59t-51 -155t52 -155t146 -59q100 0 157 87l36 -29q-69 -103 -193 -103q-115 0 -181 72t-66 187t64.5 186.5t179.5 71.5zM415 717l-142 -142l-142 142h53l89 -86l90 86h52z" />
    <glyph glyph-name="Dcaron" unicode="&#x10e;" horiz-adv-x="726" 
d="M301 735q183 0 285.5 -96.5t102.5 -270.5t-102 -271t-286 -97h-210v735h210zM300 686h-158v-638h158q162 0 250 84t88 236q0 151 -89 234.5t-249 83.5zM481 900l-143 -135l-144 135h53l91 -85l90 85h53z" />
    <glyph glyph-name="dcaron" unicode="&#x10f;" horiz-adv-x="708" 
d="M491 760v-760h-46l-1 72q-65 -82 -179 -82q-102 0 -167 73t-65 185q0 113 65 186t167 73q113 0 177 -78v331h49zM271 462q-83 0 -136 -60t-53 -154t53 -153.5t136 -59.5q105 0 171 95v237q-66 95 -171 95zM617 745q20 0 33.5 -13t13.5 -34q0 -9 -6 -25l-52 -142h-4v212
q5 2 15 2z" />
    <glyph glyph-name="Dcroat" unicode="&#x110;" horiz-adv-x="745" 
d="M320 735q183 0 285.5 -96.5t102.5 -270.5t-102 -271t-286 -97h-210v357h-91v39h91v339h210zM319 686h-158v-290h126v-39h-126v-309h158q162 0 250 84t88 236q0 151 -89 234.5t-249 83.5z" />
    <glyph glyph-name="dcroat" unicode="&#x111;" horiz-adv-x="596" 
d="M491 760v-131h101v-39h-101v-590h-46l-1 72q-65 -82 -179 -82q-102 0 -167 73t-65 185q0 113 65 186t167 73q113 0 177 -78v161h-118v39h118v131h49zM271 462q-83 0 -136 -60t-53 -154t53 -153.5t136 -59.5q105 0 171 95v237q-66 95 -171 95z" />
    <glyph glyph-name="Emacron" unicode="&#x112;" horiz-adv-x="561" 
d="M526 735v-48h-384v-291h340v-47h-340v-301h392v-48h-443v735h435zM436 830v-39h-245v39h245z" />
    <glyph glyph-name="emacron" unicode="&#x113;" horiz-adv-x="523" 
d="M265 507q104 0 164 -71t60 -182v-23h-407q2 -91 53.5 -144t142.5 -53q107 0 167 76l35 -29q-73 -91 -202 -91q-115 0 -180 71.5t-65 186.5q0 113 64.5 186t167.5 73zM265 463q-78 0 -128 -52.5t-55 -136.5h359q-3 84 -50 136.5t-126 52.5zM387 640v-39h-245v39h245z" />
    <glyph glyph-name="Ebreve" unicode="&#x114;" horiz-adv-x="561" 
d="M526 735v-48h-384v-291h340v-47h-340v-301h392v-48h-443v735h435zM453 903q0 -56 -40 -93t-99 -37q-60 0 -100 37t-40 93h39q0 -39 29 -65.5t72 -26.5t71.5 26.5t28.5 65.5h39z" />
    <glyph glyph-name="ebreve" unicode="&#x115;" horiz-adv-x="523" 
d="M265 507q104 0 164 -71t60 -182v-23h-407q2 -91 53.5 -144t142.5 -53q107 0 167 76l35 -29q-73 -91 -202 -91q-115 0 -180 71.5t-65 186.5q0 113 64.5 186t167.5 73zM265 463q-78 0 -128 -52.5t-55 -136.5h359q-3 84 -50 136.5t-126 52.5zM404 712q0 -57 -40 -94.5
t-99 -37.5q-60 0 -100 37.5t-40 94.5h40q0 -40 28 -66.5t72 -26.5q43 0 71.5 26.5t28.5 66.5h39z" />
    <glyph glyph-name="Edotaccent" unicode="&#x116;" horiz-adv-x="561" 
d="M526 735v-48h-384v-291h340v-47h-340v-301h392v-48h-443v735h435zM313 853q17 0 28.5 -11.5t11.5 -28.5q0 -16 -11.5 -27.5t-28.5 -11.5t-28.5 11t-11.5 28t11.5 28.5t28.5 11.5z" />
    <glyph glyph-name="edotaccent" unicode="&#x117;" horiz-adv-x="523" 
d="M265 507q104 0 164 -71t60 -182v-23h-407q2 -91 53.5 -144t142.5 -53q107 0 167 76l35 -29q-73 -91 -202 -91q-115 0 -180 71.5t-65 186.5q0 113 64.5 186t167.5 73zM265 463q-78 0 -128 -52.5t-55 -136.5h359q-3 84 -50 136.5t-126 52.5zM264 693q18 0 30 -12t12 -29
q0 -18 -12 -29.5t-30 -11.5q-17 0 -29 11.5t-12 29.5q0 17 12 29t29 12z" />
    <glyph glyph-name="Eogonek" unicode="&#x118;" horiz-adv-x="561" 
d="M526 735v-48h-384v-291h340v-47h-340v-301h392v-48h-59q-49 -20 -49 -72q0 -38 23 -59t60 -21q20 0 32 6l12 -34q-15 -7 -45 -7q-54 0 -87 31t-33 84q0 44 26 72h-323v735h435z" />
    <glyph glyph-name="eogonek" unicode="&#x119;" horiz-adv-x="523" 
d="M265 507q104 0 164 -71t60 -182v-23h-407q2 -91 53.5 -144t142.5 -53q107 0 167 76l35 -29q-40 -51 -99 -73q-34 -23 -34 -64q0 -38 23 -59t60 -21q20 0 32 6l12 -34q-15 -7 -45 -7q-54 0 -87 31t-33 84q0 26 10 49q-19 -3 -41 -3q-115 0 -180 71.5t-65 186.5
q0 113 64.5 186t167.5 73zM265 463q-78 0 -128 -52.5t-55 -136.5h359q-3 84 -50 136.5t-126 52.5z" />
    <glyph glyph-name="Ecaron" unicode="&#x11a;" horiz-adv-x="561" 
d="M526 735v-48h-384v-291h340v-47h-340v-301h392v-48h-443v735h435zM456 900l-143 -135l-144 135h53l91 -85l90 85h53z" />
    <glyph glyph-name="ecaron" unicode="&#x11b;" horiz-adv-x="523" 
d="M265 507q104 0 164 -71t60 -182v-23h-407q2 -91 53.5 -144t142.5 -53q107 0 167 76l35 -29q-73 -91 -202 -91q-115 0 -180 71.5t-65 186.5q0 113 64.5 186t167.5 73zM265 463q-78 0 -128 -52.5t-55 -136.5h359q-3 84 -50 136.5t-126 52.5zM406 717l-142 -142l-142 142h53
l89 -86l90 86h52z" />
    <glyph glyph-name="Gcircumflex" unicode="&#x11c;" horiz-adv-x="731" 
d="M399 748q151 0 254 -103l-33 -38q-90 93 -221 93q-136 0 -223.5 -94.5t-87.5 -238.5q0 -145 90 -238.5t231 -93.5q126 0 211 68v211h-216v46h267v-282q-100 -91 -262 -91q-163 0 -268 107.5t-105 272.5t102.5 273t260.5 108zM393 916l143 -135h-53l-90 85l-91 -85h-53z
" />
    <glyph glyph-name="gcircumflex" unicode="&#x11d;" 
d="M265 507q115 0 179 -80l1 70h46v-492q0 -113 -65 -179t-174 -66q-133 0 -213 101l34 31q69 -87 178 -87q88 0 139.5 53.5t51.5 145.5v66q-64 -80 -177 -80q-102 0 -167 73t-65 185q0 113 65 186t167 73zM271 462q-83 0 -136 -60t-53 -154t53 -153.5t136 -59.5
q105 0 171 95v237q-66 95 -171 95zM271 719l142 -142h-52l-90 86l-89 -86h-53z" />
    <glyph glyph-name="Gbreve" unicode="&#x11e;" horiz-adv-x="731" 
d="M399 748q151 0 254 -103l-33 -38q-90 93 -221 93q-136 0 -223.5 -94.5t-87.5 -238.5q0 -145 90 -238.5t231 -93.5q126 0 211 68v211h-216v46h267v-282q-100 -91 -262 -91q-163 0 -268 107.5t-105 272.5t102.5 273t260.5 108zM532 913q0 -56 -40 -93t-99 -37
q-60 0 -100 37t-40 93h39q0 -39 29 -65.5t72 -26.5t71.5 26.5t28.5 65.5h39z" />
    <glyph glyph-name="gbreve" unicode="&#x11f;" 
d="M265 507q115 0 179 -80l1 70h46v-492q0 -113 -65 -179t-174 -66q-133 0 -213 101l34 31q69 -87 178 -87q88 0 139.5 53.5t51.5 145.5v66q-64 -80 -177 -80q-102 0 -167 73t-65 185q0 113 65 186t167 73zM271 462q-83 0 -136 -60t-53 -154t53 -153.5t136 -59.5
q105 0 171 95v237q-66 95 -171 95zM411 712q0 -57 -40 -94.5t-99 -37.5q-60 0 -100 37.5t-40 94.5h40q0 -40 28 -66.5t72 -26.5q43 0 71.5 26.5t28.5 66.5h39z" />
    <glyph glyph-name="Gdotaccent" unicode="&#x120;" horiz-adv-x="731" 
d="M399 748q151 0 254 -103l-33 -38q-90 93 -221 93q-136 0 -223.5 -94.5t-87.5 -238.5q0 -145 90 -238.5t231 -93.5q126 0 211 68v211h-216v46h267v-282q-100 -91 -262 -91q-163 0 -268 107.5t-105 272.5t102.5 273t260.5 108zM393 863q17 0 28.5 -11.5t11.5 -28.5
q0 -16 -11.5 -27.5t-28.5 -11.5t-28.5 11t-11.5 28t11.5 28.5t28.5 11.5z" />
    <glyph glyph-name="gdotaccent" unicode="&#x121;" 
d="M265 507q115 0 179 -80l1 70h46v-492q0 -113 -65 -179t-174 -66q-133 0 -213 101l34 31q69 -87 178 -87q88 0 139.5 53.5t51.5 145.5v66q-64 -80 -177 -80q-102 0 -167 73t-65 185q0 113 65 186t167 73zM271 462q-83 0 -136 -60t-53 -154t53 -153.5t136 -59.5
q105 0 171 95v237q-66 95 -171 95zM271 693q18 0 30 -12t12 -29q0 -18 -12 -29.5t-30 -11.5q-17 0 -29 11.5t-12 29.5q0 17 12 29t29 12z" />
    <glyph glyph-name="Gcommaaccent" unicode="&#x122;" horiz-adv-x="731" 
d="M399 748q151 0 254 -103l-33 -38q-90 93 -221 93q-136 0 -223.5 -94.5t-87.5 -238.5q0 -145 90 -238.5t231 -93.5q126 0 211 68v211h-216v46h267v-282q-100 -91 -262 -91q-163 0 -268 107.5t-105 272.5t102.5 273t260.5 108zM384 -57q20 0 33.5 -13.5t13.5 -33.5
q0 -13 -6 -25l-51 -135h-4v205q4 2 14 2z" />
    <glyph glyph-name="gcommaaccent" unicode="&#x123;" 
d="M265 507q115 0 179 -80l1 70h46v-492q0 -113 -65 -179t-174 -66q-133 0 -213 101l34 31q69 -87 178 -87q88 0 139.5 53.5t51.5 145.5v66q-64 -80 -177 -80q-102 0 -167 73t-65 185q0 113 65 186t167 73zM271 462q-83 0 -136 -60t-53 -154t53 -153.5t136 -59.5
q105 0 171 95v237q-66 95 -171 95zM317 776v-212q-5 -2 -14 -2q-21 0 -34.5 13t-13.5 34q0 11 7 25l51 142h4z" />
    <glyph glyph-name="Hcircumflex" unicode="&#x124;" horiz-adv-x="716" 
d="M625 735v-735h-51v351h-432v-351h-51v735h51v-335h432v335h51zM358 906l143 -135h-53l-90 85l-91 -85h-53z" />
    <glyph glyph-name="hcircumflex" unicode="&#x125;" horiz-adv-x="570" 
d="M136 760v-333q69 80 172 80q88 0 138.5 -56.5t50.5 -149.5v-301h-48v298q0 72 -41 117t-108 45q-51 0 -89 -23.5t-75 -70.5v-366h-49v760h49zM115 907l143 -135h-53l-90 85l-91 -85h-53z" />
    <glyph glyph-name="Hbar" unicode="&#x126;" horiz-adv-x="739" 
d="M636 735v-155h90v-39h-90v-541h-51v350h-432v-350h-51v541h-89v39h89v155h51v-155h432v155h51zM153 397h432v144h-432v-144z" />
    <glyph glyph-name="hbar" unicode="&#x127;" horiz-adv-x="592" 
d="M157 760v-131h115v-39h-115v-163q69 80 172 80q88 0 138.5 -56.5t50.5 -149.5v-301h-48v298q0 72 -41 117t-108 45q-51 0 -89 -23.5t-75 -70.5v-366h-49v590h-105v39h105v131h49z" />
    <glyph glyph-name="Itilde" unicode="&#x128;" horiz-adv-x="233" 
d="M142 735v-735h-51v735h51zM52 899q24 0 43.5 -14t30.5 -31t26.5 -31t31.5 -14q47 0 47 83h37q0 -60 -23.5 -90.5t-62.5 -30.5q-24 0 -43.5 14t-30 30.5t-26 30.5t-31.5 14q-47 0 -47 -83h-38q0 61 23.5 91.5t62.5 30.5z" />
    <glyph glyph-name="itilde" unicode="&#x129;" horiz-adv-x="223" 
d="M47 701q24 0 43.5 -14t30.5 -31t26.5 -31t31.5 -14q47 0 47 83h37q0 -60 -23.5 -90.5t-62.5 -30.5q-24 0 -43.5 14t-30 30.5t-26 30.5t-31.5 14q-47 0 -47 -83h-38q0 61 23.5 91.5t62.5 30.5zM136 497v-497h-49v497h49z" />
    <glyph glyph-name="Imacron" unicode="&#x12a;" horiz-adv-x="233" 
d="M142 735v-735h-51v735h51zM239 830v-39h-245v39h245z" />
    <glyph glyph-name="imacron" unicode="&#x12b;" horiz-adv-x="223" 
d="M234 640v-39h-245v39h245zM136 497v-497h-49v497h49z" />
    <glyph glyph-name="Ibreve" unicode="&#x12c;" horiz-adv-x="233" 
d="M142 735v-735h-51v735h51zM256 903q0 -56 -40 -93t-99 -37q-60 0 -100 37t-40 93h39q0 -39 29 -65.5t72 -26.5t71.5 26.5t28.5 65.5h39z" />
    <glyph glyph-name="ibreve" unicode="&#x12d;" horiz-adv-x="223" 
d="M251 712q0 -57 -40 -94.5t-99 -37.5q-60 0 -100 37.5t-40 94.5h40q0 -40 28 -66.5t72 -26.5q43 0 71.5 26.5t28.5 66.5h39zM136 497v-497h-49v497h49z" />
    <glyph glyph-name="Iogonek" unicode="&#x12e;" horiz-adv-x="233" 
d="M91 31v704h51v-735h-39q-49 -20 -49 -72q0 -38 23 -59t60 -21q20 0 32 6l12 -34q-15 -7 -45 -7q-54 0 -87 31t-33 84q0 74 75 103z" />
    <glyph glyph-name="iogonek" unicode="&#x12f;" horiz-adv-x="223" 
d="M136 497v-497h-7q-49 -20 -49 -72q0 -38 23 -59t60 -21q20 0 32 6l12 -34q-15 -7 -45 -7q-54 0 -87 31t-33 84q0 59 45 88v481h49zM112 702q17 0 29.5 -12t12.5 -29q0 -18 -12 -29.5t-30 -11.5q-17 0 -29 11.5t-12 29.5q0 17 12 29t29 12z" />
    <glyph glyph-name="Idotaccent" unicode="&#x130;" horiz-adv-x="233" 
d="M142 735v-735h-51v735h51zM116 853q17 0 28.5 -11.5t11.5 -28.5q0 -16 -11.5 -27.5t-28.5 -11.5t-28.5 11t-11.5 28t11.5 28.5t28.5 11.5z" />
    <glyph glyph-name="dotlessi" unicode="&#x131;" horiz-adv-x="223" 
d="M136 497v-497h-49v497h49z" />
    <glyph glyph-name="Jcircumflex" unicode="&#x134;" horiz-adv-x="512" 
d="M432 735v-535q0 -99 -55.5 -156t-148.5 -57q-88 0 -146.5 59t-58.5 159h51q0 -78 42.5 -124t110.5 -46q71 0 112.5 44t41.5 123v533h51zM403 906l143 -135h-53l-90 85l-91 -85h-53z" />
    <glyph glyph-name="jcircumflex" unicode="&#x135;" horiz-adv-x="223" 
d="M136 497v-584q0 -65 -44 -109t-110 -44q-77 0 -127 52l33 33q38 -40 93 -40q46 0 76 30t30 76v586h49zM113 719l142 -142h-52l-90 86l-89 -86h-53z" />
    <glyph glyph-name="Kcommaaccent" unicode="&#x136;" horiz-adv-x="627" 
d="M560 735l-205 -355l261 -380h-61l-229 333l-193 -333h-42v735h51v-631l358 631h60zM314 -57q20 0 33.5 -13.5t13.5 -33.5q0 -13 -6 -25l-51 -135h-4v205q4 2 14 2z" />
    <glyph glyph-name="kcommaaccent" unicode="&#x137;" horiz-adv-x="504" 
d="M136 760v-670l264 407h57l-152 -229l188 -268h-58l-159 226l-148 -226h-41v760h49zM262 -57q20 0 33.5 -13.5t13.5 -33.5q0 -13 -6 -25l-51 -135h-4v205q4 2 14 2z" />
    <glyph glyph-name="Lacute" unicode="&#x139;" horiz-adv-x="542" 
d="M142 735v-688h387v-47h-438v735h51zM280 883l-147 -111h-61l140 111h68z" />
    <glyph glyph-name="lacute" unicode="&#x13a;" horiz-adv-x="223" 
d="M136 760v-760h-49v760h49zM279 902l-147 -111h-61l140 111h68z" />
    <glyph glyph-name="Lcommaaccent" unicode="&#x13b;" horiz-adv-x="542" 
d="M142 735v-688h387v-47h-438v735h51zM294 -57q20 0 33.5 -13.5t13.5 -33.5q0 -13 -6 -25l-51 -135h-4v205q4 2 14 2z" />
    <glyph glyph-name="lcommaaccent" unicode="&#x13c;" horiz-adv-x="223" 
d="M136 760v-760h-49v760h49zM96 -57q20 0 33.5 -13.5t13.5 -33.5q0 -13 -6 -25l-51 -135h-4v205q4 2 14 2z" />
    <glyph glyph-name="Lcaron" unicode="&#x13d;" horiz-adv-x="542" 
d="M142 735v-688h387v-47h-438v735h51zM453 745q20 0 33.5 -13t13.5 -34q0 -9 -6 -25l-52 -142h-4v212q5 2 15 2z" />
    <glyph glyph-name="lcaron" unicode="&#x13e;" horiz-adv-x="353" 
d="M136 760v-760h-49v760h49zM262 745q20 0 33.5 -13t13.5 -34q0 -9 -6 -25l-52 -142h-4v212q5 2 15 2z" />
    <glyph glyph-name="Ldot" unicode="&#x13f;" horiz-adv-x="542" 
d="M142 735v-688h387v-47h-438v735h51zM381 351q18 0 30 -12t12 -30q0 -17 -12 -29t-30 -12t-30 12t-12 29q0 18 12 30t30 12z" />
    <glyph glyph-name="ldot" unicode="&#x140;" horiz-adv-x="371" 
d="M136 760v-760h-49v760h49zM295 298q18 0 30 -12t12 -30q0 -17 -12 -29t-30 -12t-30 12t-12 29q0 18 12 30t30 12z" />
    <glyph glyph-name="Lslash" unicode="&#x141;" horiz-adv-x="564" 
d="M163 735v-398l119 74l19 -37l-138 -86v-241h387v-47h-438v256l-92 -57l-19 38l111 68v430h51z" />
    <glyph glyph-name="lslash" unicode="&#x142;" horiz-adv-x="238" 
d="M143 760v-378l85 50l17 -34l-102 -61v-337h-49v308l-84 -49l-18 34l102 60v407h49z" />
    <glyph glyph-name="Nacute" unicode="&#x143;" horiz-adv-x="722" 
d="M631 735v-748h-4l-485 627v-614h-51v748h4l485 -626v613h51zM524 883l-147 -111h-61l140 111h68z" />
    <glyph glyph-name="nacute" unicode="&#x144;" horiz-adv-x="570" 
d="M308 507q88 0 138.5 -56.5t50.5 -149.5v-301h-48v298q0 72 -41 117t-108 45q-51 0 -89 -23.5t-75 -70.5v-366h-49v497h46l1 -72q71 82 174 82zM458 695l-150 -116h-58l142 116h66z" />
    <glyph glyph-name="Ncommaaccent" unicode="&#x145;" horiz-adv-x="722" 
d="M631 735v-748h-4l-485 627v-614h-51v748h4l485 -626v613h51zM360 -57q20 0 33.5 -13.5t13.5 -33.5q0 -13 -6 -25l-51 -135h-4v205q4 2 14 2z" />
    <glyph glyph-name="ncommaaccent" unicode="&#x146;" horiz-adv-x="570" 
d="M308 507q88 0 138.5 -56.5t50.5 -149.5v-301h-48v298q0 72 -41 117t-108 45q-51 0 -89 -23.5t-75 -70.5v-366h-49v497h46l1 -72q71 82 174 82zM280 -57q20 0 33.5 -13.5t13.5 -33.5q0 -13 -6 -25l-51 -135h-4v205q4 2 14 2z" />
    <glyph glyph-name="Ncaron" unicode="&#x147;" horiz-adv-x="722" 
d="M631 735v-748h-4l-485 627v-614h-51v748h4l485 -626v613h51zM503 900l-143 -135l-144 135h53l91 -85l90 85h53z" />
    <glyph glyph-name="ncaron" unicode="&#x148;" horiz-adv-x="570" 
d="M308 507q88 0 138.5 -56.5t50.5 -149.5v-301h-48v298q0 72 -41 117t-108 45q-51 0 -89 -23.5t-75 -70.5v-366h-49v497h46l1 -72q71 82 174 82zM433 717l-142 -142l-142 142h53l89 -86l90 86h52z" />
    <glyph glyph-name="Eng" unicode="&#x14a;" horiz-adv-x="722" 
d="M631 735v-762q0 -99 -55.5 -156t-149.5 -57v51q72 0 113 43t41 122v72l-438 566v-614h-51v748h4l485 -626v613h51z" />
    <glyph glyph-name="eng" unicode="&#x14b;" horiz-adv-x="570" 
d="M308 507q88 0 138.5 -56.5t50.5 -149.5v-388q0 -65 -43.5 -109t-110.5 -44v46q46 0 76 29.5t30 75.5v387q0 72 -41 117t-108 45q-51 0 -89 -23.5t-75 -70.5v-366h-49v497h46l1 -72q71 82 174 82z" />
    <glyph glyph-name="Omacron" unicode="&#x14c;" horiz-adv-x="799" 
d="M399 748q157 0 260 -108.5t103 -272.5q0 -165 -102.5 -272.5t-260.5 -107.5t-260.5 107.5t-102.5 272.5t102.5 273t260.5 108zM399 700q-136 0 -223.5 -94.5t-87.5 -238.5t87.5 -238t223.5 -94t224 94t88 238t-88.5 238.5t-223.5 94.5zM521 840v-39h-245v39h245z" />
    <glyph glyph-name="omacron" unicode="&#x14d;" horiz-adv-x="562" 
d="M281 507q107 0 177.5 -73.5t70.5 -185.5t-70.5 -185t-177.5 -73q-108 0 -178 73t-70 185t70 185.5t178 73.5zM281 462q-87 0 -143 -60.5t-56 -153.5t56 -153t143 -60q86 0 142.5 60t56.5 153q0 92 -56.5 153t-142.5 61zM402 640v-39h-245v39h245z" />
    <glyph glyph-name="Obreve" unicode="&#x14e;" horiz-adv-x="799" 
d="M399 748q157 0 260 -108.5t103 -272.5q0 -165 -102.5 -272.5t-260.5 -107.5t-260.5 107.5t-102.5 272.5t102.5 273t260.5 108zM399 700q-136 0 -223.5 -94.5t-87.5 -238.5t87.5 -238t223.5 -94t224 94t88 238t-88.5 238.5t-223.5 94.5zM538 913q0 -56 -40 -93t-99 -37
q-60 0 -100 37t-40 93h39q0 -39 29 -65.5t72 -26.5t71.5 26.5t28.5 65.5h39z" />
    <glyph glyph-name="obreve" unicode="&#x14f;" horiz-adv-x="562" 
d="M281 507q107 0 177.5 -73.5t70.5 -185.5t-70.5 -185t-177.5 -73q-108 0 -178 73t-70 185t70 185.5t178 73.5zM281 462q-87 0 -143 -60.5t-56 -153.5t56 -153t143 -60q86 0 142.5 60t56.5 153q0 92 -56.5 153t-142.5 61zM420 712q0 -57 -40 -94.5t-99 -37.5
q-60 0 -100 37.5t-40 94.5h40q0 -40 28 -66.5t72 -26.5q43 0 71.5 26.5t28.5 66.5h39z" />
    <glyph glyph-name="Ohungarumlaut" unicode="&#x150;" horiz-adv-x="799" 
d="M399 748q157 0 260 -108.5t103 -272.5q0 -165 -102.5 -272.5t-260.5 -107.5t-260.5 107.5t-102.5 272.5t102.5 273t260.5 108zM399 700q-136 0 -223.5 -94.5t-87.5 -238.5t87.5 -238t223.5 -94t224 94t88 238t-88.5 238.5t-223.5 94.5zM453 902l-115 -117h-43l106 117h52
zM598 902l-115 -117h-44l106 117h53z" />
    <glyph glyph-name="ohungarumlaut" unicode="&#x151;" horiz-adv-x="562" 
d="M281 507q107 0 177.5 -73.5t70.5 -185.5t-70.5 -185t-177.5 -73q-108 0 -178 73t-70 185t70 185.5t178 73.5zM281 462q-87 0 -143 -60.5t-56 -153.5t56 -153t143 -60q86 0 142.5 60t56.5 153q0 92 -56.5 153t-142.5 61zM336 709l-118 -138h-44l110 138h52zM482 709
l-117 -138h-45l110 138h52z" />
    <glyph glyph-name="OE" unicode="&#x152;" horiz-adv-x="1173" 
d="M1146 735v-48h-384v-291h340v-47h-340v-301h392v-48h-443v174q-45 -87 -127 -137t-185 -50q-158 0 -260.5 107.5t-102.5 272.5t102.5 273t260.5 108q103 0 185 -50.5t127 -137.5v175h435zM399 700q-136 0 -223.5 -94.5t-87.5 -238.5t87.5 -238t223.5 -94t224 94t88 238
v14q-5 139 -93 229t-219 90z" />
    <glyph glyph-name="oe" unicode="&#x153;" horiz-adv-x="971" 
d="M712 507q104 0 164 -71t60 -182v-23h-407q2 -91 53.5 -144t142.5 -53q107 0 167 76l35 -29q-73 -91 -202 -91q-81 0 -138 36.5t-85 101.5q-30 -64 -88 -101t-133 -37q-108 0 -178 73t-70 185t70 185.5t178 73.5q75 0 133.5 -37.5t88.5 -102.5q28 65 82.5 102.5
t126.5 37.5zM281 462q-87 0 -143 -60.5t-56 -153.5t56 -153t143 -60q86 0 142.5 60t56.5 153v9q-3 89 -59 147t-140 58zM712 463q-78 0 -128 -52.5t-55 -136.5h359q-3 84 -50 136.5t-126 52.5z" />
    <glyph glyph-name="Racute" unicode="&#x154;" horiz-adv-x="599" 
d="M286 735q117 0 187.5 -57t70.5 -161q0 -81 -44 -134t-121 -73l198 -310h-61l-192 301q-26 -2 -38 -2h-148v-299h-51v735h199zM283 688h-145v-341h145q98 0 153.5 43.5t55.5 126.5t-56 127t-153 44zM454 883l-147 -111h-61l140 111h68z" />
    <glyph glyph-name="racute" unicode="&#x155;" horiz-adv-x="300" 
d="M287 507v-49h-6q-86 0 -145 -93v-365h-49v497h46l1 -73q52 83 153 83zM357 695l-150 -116h-58l142 116h66z" />
    <glyph glyph-name="Rcommaaccent" unicode="&#x156;" horiz-adv-x="599" 
d="M286 735q117 0 187.5 -57t70.5 -161q0 -81 -44 -134t-121 -73l198 -310h-61l-192 301q-26 -2 -38 -2h-148v-299h-51v735h199zM283 688h-145v-341h145q98 0 153.5 43.5t55.5 126.5t-56 127t-153 44zM284 -57q20 0 33.5 -13.5t13.5 -33.5q0 -13 -6 -25l-51 -135h-4v205
q4 2 14 2z" />
    <glyph glyph-name="rcommaaccent" unicode="&#x157;" horiz-adv-x="300" 
d="M287 507v-49h-6q-86 0 -145 -93v-365h-49v497h46l1 -73q52 83 153 83zM104 -57q20 0 33.5 -13.5t13.5 -33.5q0 -13 -6 -25l-51 -135h-4v205q4 2 14 2z" />
    <glyph glyph-name="Rcaron" unicode="&#x158;" horiz-adv-x="599" 
d="M286 735q117 0 187.5 -57t70.5 -161q0 -81 -44 -134t-121 -73l198 -310h-61l-192 301q-26 -2 -38 -2h-148v-299h-51v735h199zM283 688h-145v-341h145q98 0 153.5 43.5t55.5 126.5t-56 127t-153 44zM433 900l-143 -135l-144 135h53l91 -85l90 85h53z" />
    <glyph glyph-name="rcaron" unicode="&#x159;" horiz-adv-x="300" 
d="M287 507v-49h-6q-86 0 -145 -93v-365h-49v497h46l1 -73q52 83 153 83zM332 717l-142 -142l-142 142h53l89 -86l90 86h52z" />
    <glyph glyph-name="Sacute" unicode="&#x15a;" horiz-adv-x="568" 
d="M273 748q125 0 220 -78l-28 -42q-84 72 -193 72q-76 0 -124 -38.5t-48 -112.5q0 -63 43 -93t152 -55q128 -30 183.5 -75.5t55.5 -128.5q0 -94 -67 -152t-178 -58q-149 0 -253 90l31 42q41 -39 100.5 -61.5t122.5 -22.5q85 0 139.5 42t54.5 118q0 62 -48 97t-155 59
q-128 29 -180 72t-52 125q0 94 61.5 147t162.5 53zM441 891l-147 -111h-61l140 111h68z" />
    <glyph glyph-name="sacute" unicode="&#x15b;" horiz-adv-x="442" 
d="M220 507q86 0 155 -53l-23 -38q-60 46 -131 46q-54 0 -86 -22.5t-32 -68.5q0 -39 28.5 -58t102.5 -37q88 -20 128 -52.5t40 -87.5q0 -66 -49.5 -106t-130.5 -40q-106 0 -181 60l25 39q65 -54 157 -54q59 0 95 25.5t36 73.5q0 40 -31.5 61t-104.5 38q-88 20 -126 50
t-38 86q0 66 45 102t121 36zM386 695l-150 -116h-58l142 116h66z" />
    <glyph glyph-name="Scircumflex" unicode="&#x15c;" horiz-adv-x="568" 
d="M273 748q125 0 220 -78l-28 -42q-84 72 -193 72q-76 0 -124 -38.5t-48 -112.5q0 -63 43 -93t152 -55q128 -30 183.5 -75.5t55.5 -128.5q0 -94 -67 -152t-178 -58q-149 0 -253 90l31 42q41 -39 100.5 -61.5t122.5 -22.5q85 0 139.5 42t54.5 118q0 62 -48 97t-155 59
q-128 29 -180 72t-52 125q0 94 61.5 147t162.5 53zM278 914l143 -135h-53l-90 85l-91 -85h-53z" />
    <glyph glyph-name="scircumflex" unicode="&#x15d;" horiz-adv-x="442" 
d="M220 507q86 0 155 -53l-23 -38q-60 46 -131 46q-54 0 -86 -22.5t-32 -68.5q0 -39 28.5 -58t102.5 -37q88 -20 128 -52.5t40 -87.5q0 -66 -49.5 -106t-130.5 -40q-106 0 -181 60l25 39q65 -54 157 -54q59 0 95 25.5t36 73.5q0 40 -31.5 61t-104.5 38q-88 20 -126 50
t-38 86q0 66 45 102t121 36zM218 719l142 -142h-52l-90 86l-89 -86h-53z" />
    <glyph glyph-name="Scedilla" unicode="&#x15e;" horiz-adv-x="568" 
d="M273 748q125 0 220 -78l-28 -42q-84 72 -193 72q-76 0 -124 -38.5t-48 -112.5q0 -63 43 -93t152 -55q128 -30 183.5 -75.5t55.5 -128.5q0 -90 -62 -147.5t-166 -61.5l-8 -53q42 -2 68.5 -26t26.5 -63q0 -45 -29.5 -69.5t-75.5 -24.5q-60 0 -90 37l23 28q24 -30 66 -30
q68 0 68 58q0 41 -49 54q-22 4 -46 1l-3 4l14 84q-137 4 -235 89l31 42q41 -39 100.5 -61.5t122.5 -22.5q85 0 139.5 42t54.5 118q0 62 -48 97t-155 59q-128 29 -180 72t-52 125q0 94 61.5 147t162.5 53z" />
    <glyph glyph-name="scedilla" unicode="&#x15f;" horiz-adv-x="442" 
d="M220 507q86 0 155 -53l-23 -38q-60 46 -131 46q-54 0 -86 -22.5t-32 -68.5q0 -39 28.5 -58t102.5 -37q88 -20 128 -52.5t40 -87.5q0 -64 -46 -103.5t-123 -42.5l-9 -55q42 -2 68.5 -26t26.5 -63q0 -45 -29.5 -69.5t-75.5 -24.5q-60 0 -90 37l23 28q24 -30 66 -30
q68 0 68 58q0 41 -49 54q-22 4 -46 1l-3 4l14 87q-90 6 -156 59l25 39q65 -54 157 -54q59 0 95 25.5t36 73.5q0 40 -31.5 61t-104.5 38q-88 20 -126 50t-38 86q0 66 45 102t121 36z" />
    <glyph glyph-name="Scaron" unicode="&#x160;" horiz-adv-x="568" 
d="M273 748q125 0 220 -78l-28 -42q-84 72 -193 72q-76 0 -124 -38.5t-48 -112.5q0 -63 43 -93t152 -55q128 -30 183.5 -75.5t55.5 -128.5q0 -94 -67 -152t-178 -58q-149 0 -253 90l31 42q41 -39 100.5 -61.5t122.5 -22.5q85 0 139.5 42t54.5 118q0 62 -48 97t-155 59
q-128 29 -180 72t-52 125q0 94 61.5 147t162.5 53zM421 908l-143 -135l-144 135h53l91 -85l90 85h53z" />
    <glyph glyph-name="scaron" unicode="&#x161;" horiz-adv-x="442" 
d="M220 507q86 0 155 -53l-23 -38q-60 46 -131 46q-54 0 -86 -22.5t-32 -68.5q0 -39 28.5 -58t102.5 -37q88 -20 128 -52.5t40 -87.5q0 -66 -49.5 -106t-130.5 -40q-106 0 -181 60l25 39q65 -54 157 -54q59 0 95 25.5t36 73.5q0 40 -31.5 61t-104.5 38q-88 20 -126 50
t-38 86q0 66 45 102t121 36zM360 717l-142 -142l-142 142h53l89 -86l90 86h52z" />
    <glyph glyph-name="Tcommaaccent" unicode="&#x162;" horiz-adv-x="635" 
d="M620 735v-47h-277v-688h-51v688h-277v47h605zM304 -57q20 0 33.5 -13.5t13.5 -33.5q0 -13 -6 -25l-51 -135h-4v205q4 2 14 2z" />
    <glyph glyph-name="tcommaaccent" unicode="&#x163;" horiz-adv-x="372" 
d="M167 669v-172h171v-44h-171v-306q0 -53 28.5 -82.5t74.5 -29.5q51 0 78 18l19 -39q-37 -24 -99 -24q-69 0 -109 40.5t-40 116.5v306h-105v44h105v172h48zM170 -57q20 0 33.5 -13.5t13.5 -33.5q0 -13 -6 -25l-51 -135h-4v205q4 2 14 2z" />
    <glyph glyph-name="Tcaron" unicode="&#x164;" horiz-adv-x="635" 
d="M620 735v-47h-277v-688h-51v688h-277v47h605zM460 900l-143 -135l-144 135h53l91 -85l90 85h53z" />
    <glyph glyph-name="tcaron" unicode="&#x165;" horiz-adv-x="499" 
d="M167 669v-172h171v-44h-171v-306q0 -53 28.5 -82.5t74.5 -29.5q51 0 78 18l19 -39q-37 -24 -99 -24q-69 0 -109 40.5t-40 116.5v306h-105v44h105v172h48zM408 745q20 0 33.5 -13t13.5 -34q0 -9 -6 -25l-52 -142h-4v212q5 2 15 2z" />
    <glyph glyph-name="Tbar" unicode="&#x166;" horiz-adv-x="635" 
d="M620 735v-47h-277v-307h160v-40h-160v-341h-51v341h-158v40h158v307h-277v47h605z" />
    <glyph glyph-name="tbar" unicode="&#x167;" horiz-adv-x="372" 
d="M167 669v-172h171v-39h-171v-137h171v-39h-171v-135q0 -54 28.5 -83t76.5 -29q50 0 78 17l16 -39q-34 -23 -97 -23q-69 0 -109.5 40.5t-40.5 116.5v135h-105v39h105v137h-105v39h105v172h48z" />
    <glyph glyph-name="Utilde" unicode="&#x168;" horiz-adv-x="684" 
d="M602 735v-481q0 -125 -67 -196t-193 -71q-127 0 -193.5 71t-66.5 196v481h51v-480q0 -103 53.5 -161.5t155.5 -58.5t155.5 58.5t53.5 161.5v480h51zM277 899q24 0 43.5 -14t30.5 -31t26.5 -31t31.5 -14q47 0 47 83h37q0 -60 -23.5 -90.5t-62.5 -30.5q-24 0 -43.5 14
t-30 30.5t-26 30.5t-31.5 14q-47 0 -47 -83h-38q0 61 23.5 91.5t62.5 30.5z" />
    <glyph glyph-name="utilde" unicode="&#x169;" horiz-adv-x="558" 
d="M471 497v-497h-46l-1 71q-69 -81 -175 -81q-82 0 -129 55.5t-47 147.5v304h49v-302q0 -71 37 -114.5t98 -43.5q55 0 92 23t73 70v367h49zM206 701q24 0 43.5 -14t30.5 -31t26.5 -31t31.5 -14q47 0 47 83h37q0 -60 -23.5 -90.5t-62.5 -30.5q-24 0 -43.5 14t-30 30.5
t-26 30.5t-31.5 14q-47 0 -47 -83h-38q0 61 23.5 91.5t62.5 30.5z" />
    <glyph glyph-name="Umacron" unicode="&#x16a;" horiz-adv-x="684" 
d="M602 735v-481q0 -125 -67 -196t-193 -71q-127 0 -193.5 71t-66.5 196v481h51v-480q0 -103 53.5 -161.5t155.5 -58.5t155.5 58.5t53.5 161.5v480h51zM464 830v-39h-245v39h245z" />
    <glyph glyph-name="umacron" unicode="&#x16b;" horiz-adv-x="558" 
d="M471 497v-497h-46l-1 71q-69 -81 -175 -81q-82 0 -129 55.5t-47 147.5v304h49v-302q0 -71 37 -114.5t98 -43.5q55 0 92 23t73 70v367h49zM393 640v-39h-245v39h245z" />
    <glyph glyph-name="Ubreve" unicode="&#x16c;" horiz-adv-x="684" 
d="M602 735v-481q0 -125 -67 -196t-193 -71q-127 0 -193.5 71t-66.5 196v481h51v-480q0 -103 53.5 -161.5t155.5 -58.5t155.5 58.5t53.5 161.5v480h51zM481 903q0 -56 -40 -93t-99 -37q-60 0 -100 37t-40 93h39q0 -39 29 -65.5t72 -26.5t71.5 26.5t28.5 65.5h39z" />
    <glyph glyph-name="ubreve" unicode="&#x16d;" horiz-adv-x="558" 
d="M471 497v-497h-46l-1 71q-69 -81 -175 -81q-82 0 -129 55.5t-47 147.5v304h49v-302q0 -71 37 -114.5t98 -43.5q55 0 92 23t73 70v367h49zM410 712q0 -57 -40 -94.5t-99 -37.5q-60 0 -100 37.5t-40 94.5h40q0 -40 28 -66.5t72 -26.5q43 0 71.5 26.5t28.5 66.5h39z" />
    <glyph glyph-name="Uring" unicode="&#x16e;" horiz-adv-x="684" 
d="M602 735v-481q0 -125 -67 -196t-193 -71q-127 0 -193.5 71t-66.5 196v481h51v-480q0 -103 53.5 -161.5t155.5 -58.5t155.5 58.5t53.5 161.5v480h51zM342 962q41 0 69 -27.5t28 -68.5t-28 -68t-69 -27t-69 27t-28 68t28 68.5t69 27.5zM342 928q-26 0 -44 -18t-18 -44
t18 -43t44 -17t44 17t18 43t-18 44t-44 18z" />
    <glyph glyph-name="uring" unicode="&#x16f;" horiz-adv-x="558" 
d="M471 497v-497h-46l-1 71q-69 -81 -175 -81q-82 0 -129 55.5t-47 147.5v304h49v-302q0 -71 37 -114.5t98 -43.5q55 0 92 23t73 70v367h49zM271 765q41 0 69 -28t28 -69t-27.5 -67.5t-69.5 -26.5t-69.5 26.5t-27.5 67.5t28 69t69 28zM271 730q-26 0 -44 -18t-18 -44t18 -43
t44 -17t44 17t18 43t-18 44t-44 18z" />
    <glyph glyph-name="Uhungarumlaut" unicode="&#x170;" horiz-adv-x="684" 
d="M602 735v-481q0 -125 -67 -196t-193 -71q-127 0 -193.5 71t-66.5 196v481h51v-480q0 -103 53.5 -161.5t155.5 -58.5t155.5 58.5t53.5 161.5v480h51zM397 892l-115 -117h-43l106 117h52zM542 892l-115 -117h-44l106 117h53z" />
    <glyph glyph-name="uhungarumlaut" unicode="&#x171;" horiz-adv-x="558" 
d="M471 497v-497h-46l-1 71q-69 -81 -175 -81q-82 0 -129 55.5t-47 147.5v304h49v-302q0 -71 37 -114.5t98 -43.5q55 0 92 23t73 70v367h49zM327 709l-118 -138h-44l110 138h52zM473 709l-117 -138h-45l110 138h52z" />
    <glyph glyph-name="Uogonek" unicode="&#x172;" horiz-adv-x="684" 
d="M602 735v-481q0 -96 -40.5 -161.5t-118.5 -90.5q-42 -21 -42 -69q0 -38 23 -59t60 -21q20 0 32 6l12 -34q-15 -7 -45 -7q-54 0 -87 31t-33 84q0 33 14 56q-24 -2 -35 -2q-127 0 -193.5 71t-66.5 196v481h51v-480q0 -103 53.5 -161.5t155.5 -58.5t155.5 58.5t53.5 161.5
v480h51z" />
    <glyph glyph-name="uogonek" unicode="&#x173;" horiz-adv-x="558" 
d="M471 497v-497h-5q-49 -20 -49 -72q0 -38 23 -59t60 -21q20 0 32 6l12 -34q-15 -7 -45 -7q-54 0 -87 31t-33 84q0 58 46 88l-1 55q-69 -81 -175 -81q-82 0 -129 55.5t-47 147.5v304h49v-302q0 -71 37 -114.5t98 -43.5q55 0 92 23t73 70v367h49z" />
    <glyph glyph-name="Wcircumflex" unicode="&#x174;" horiz-adv-x="994" 
d="M981 735l-277 -748h-4l-203 603l-203 -603h-4l-277 748h57l221 -608l204 608h4l204 -608l221 608h57zM497 906l143 -135h-53l-90 85l-91 -85h-53z" />
    <glyph glyph-name="wcircumflex" unicode="&#x175;" horiz-adv-x="753" 
d="M739 497l-203 -507h-4l-155 397l-156 -397h-4l-204 507h54l154 -393l154 393h4l153 -393l154 393h53zM376 719l142 -142h-52l-90 86l-89 -86h-53z" />
    <glyph glyph-name="Ycircumflex" unicode="&#x176;" horiz-adv-x="623" 
d="M613 734l-276 -413v-321h-51v321l-276 413h60l241 -361l241 361h61zM310 906l143 -135h-53l-90 85l-91 -85h-53z" />
    <glyph glyph-name="ycircumflex" unicode="&#x177;" horiz-adv-x="525" 
d="M503 497l-340 -727h-55l128 266l-214 461h53l187 -406l187 406h54zM259 719l142 -142h-52l-90 86l-89 -86h-53z" />
    <glyph glyph-name="Ydieresis" unicode="&#x178;" horiz-adv-x="623" 
d="M613 734l-276 -413v-321h-51v321l-276 413h60l241 -361l241 361h61zM235 860q16 0 27.5 -11t11.5 -27t-11 -27t-28 -11q-16 0 -27 11t-11 27t11 27t27 11zM385 860q16 0 27.5 -11t11.5 -27t-11.5 -27t-27.5 -11t-27 11t-11 27t11 27t27 11z" />
    <glyph glyph-name="Zacute" unicode="&#x179;" horiz-adv-x="566" 
d="M525 735v-4l-411 -684h423v-47h-505v4l412 684h-396v47h477zM447 883l-147 -111h-61l140 111h68z" />
    <glyph glyph-name="zacute" unicode="&#x17a;" horiz-adv-x="427" 
d="M402 497v-4l-298 -449h298v-44h-378v4l297 449h-280v44h361zM380 695l-150 -116h-58l142 116h66z" />
    <glyph glyph-name="Zdotaccent" unicode="&#x17b;" horiz-adv-x="566" 
d="M525 735v-4l-411 -684h423v-47h-505v4l412 684h-396v47h477zM284 853q17 0 28.5 -11.5t11.5 -28.5q0 -16 -11.5 -27.5t-28.5 -11.5t-28.5 11t-11.5 28t11.5 28.5t28.5 11.5z" />
    <glyph glyph-name="zdotaccent" unicode="&#x17c;" horiz-adv-x="427" 
d="M402 497v-4l-298 -449h298v-44h-378v4l297 449h-280v44h361zM212 693q18 0 30 -12t12 -29q0 -18 -12 -29.5t-30 -11.5q-17 0 -29 11.5t-12 29.5q0 17 12 29t29 12z" />
    <glyph glyph-name="Zcaron" unicode="&#x17d;" horiz-adv-x="566" 
d="M525 735v-4l-411 -684h423v-47h-505v4l412 684h-396v47h477zM427 900l-143 -135l-144 135h53l91 -85l90 85h53z" />
    <glyph glyph-name="zcaron" unicode="&#x17e;" horiz-adv-x="427" 
d="M402 497v-4l-298 -449h298v-44h-378v4l297 449h-280v44h361zM354 717l-142 -142l-142 142h53l89 -86l90 86h52z" />
    <glyph glyph-name="florin" unicode="&#x192;" horiz-adv-x="335" 
d="M290 750q60 0 101 -39l-23 -38q-32 32 -77 32q-43 0 -70 -31.5t-33 -85.5l-9 -91h111l-5 -44h-111l-59 -538q-8 -68 -47.5 -111.5t-102.5 -43.5t-102 39l23 37q31 -31 77 -31q43 0 70 31t33 86l58 531h-77l5 44h77l10 98q8 68 48 111.5t103 43.5z" />
    <glyph glyph-name="Aringacute" unicode="&#x1fa;" horiz-adv-x="671" 
d="M337 748l321 -748h-55l-82 194h-372l-81 -194h-55l320 748h4zM335 632l-165 -392h331zM471 1051l-118 -92q35 -6 57 -32.5t22 -62.5q0 -41 -27.5 -67.5t-69.5 -26.5t-69.5 26.5t-27.5 67.5q0 43 30 71h-5l142 116h66zM335 926q-26 0 -44 -18t-18 -44t18 -43t44 -17t44 17
t18 43t-18 44t-44 18z" />
    <glyph glyph-name="aringacute" unicode="&#x1fb;" 
d="M267 507q115 0 179 -80l1 70h46v-497h-46l-1 72q-65 -82 -179 -82q-102 0 -167 73t-65 185q0 113 65 186t167 73zM273 462q-83 0 -136 -60t-53 -154t53 -153.5t136 -59.5q105 0 171 95v237q-66 95 -171 95zM416 836l-114 -86q34 -6 56 -32.5t22 -62.5q0 -41 -27.5 -67.5
t-69.5 -26.5t-69.5 26.5t-27.5 67.5t29 70h-7l140 111h68zM283 717q-26 0 -44 -18t-18 -44t18 -43t44 -17t44 17t18 43t-18 44t-44 18z" />
    <glyph glyph-name="AEacute" unicode="&#x1fc;" horiz-adv-x="850" 
d="M815 735v-48h-444l121 -291h280v-47h-261l126 -301h186v-48h-221l-81 195h-371l-81 -195h-56l311 735h491zM335 641l-166 -402h333zM654 883l-147 -111h-61l140 111h68z" />
    <glyph glyph-name="aeacute" unicode="&#x1fd;" horiz-adv-x="941" 
d="M681 507q104 0 164.5 -71t60.5 -183v-22h-409q3 -91 53.5 -144t143.5 -53q107 0 168 76l35 -29q-73 -91 -202 -91q-74 0 -126.5 29.5t-78.5 81.5l-1 -101h-44l-1 72q-65 -82 -179 -82q-102 0 -167 73t-65 185q0 113 65 186t167 73q115 0 179 -80l1 70h44l2 -103
q60 113 190 113zM680 463q-78 0 -128.5 -51.5t-55.5 -137.5h362q-3 84 -50.5 136.5t-127.5 52.5zM271 462q-83 0 -136 -60t-53 -154t53 -153.5t136 -59.5q105 0 171 95v237q-66 95 -171 95zM636 695l-150 -116h-58l142 116h66z" />
    <glyph glyph-name="Oslashacute" unicode="&#x1fe;" horiz-adv-x="799" 
d="M399 748q88 0 162 -37l57 104h48l-68 -125q77 -50 120.5 -134.5t43.5 -188.5q0 -165 -102.5 -272.5t-260.5 -107.5q-88 0 -163 36l-56 -103h-49l67 124q-76 50 -119 134.5t-43 188.5q0 165 102.5 273t260.5 108zM711 367q0 89 -36.5 162.5t-100.5 117.5l-315 -581
q64 -31 140 -31q136 0 224 94t88 238zM399 700q-136 0 -223.5 -94.5t-87.5 -238.5q0 -90 35.5 -163t98.5 -116l316 580q-66 32 -139 32zM560 893l-147 -111h-61l140 111h68z" />
    <glyph glyph-name="oslashacute" unicode="&#x1ff;" horiz-adv-x="562" 
d="M281 507q57 0 108 -24l45 84h41l-55 -101q51 -34 80 -91t29 -127q0 -112 -70.5 -185t-177.5 -73q-57 0 -107 22l-44 -82h-41l54 99q-52 34 -81 91t-29 128q0 112 70 185.5t178 73.5zM281 464q-87 0 -144 -61.5t-57 -154.5q0 -119 84 -179l204 376q-41 19 -87 19zM481 248
q0 116 -83 178l-203 -375q39 -18 86 -18q87 0 143.5 60.5t56.5 154.5zM435 695l-150 -116h-58l142 116h66z" />
    <glyph glyph-name="Scommaaccent" unicode="&#x218;" horiz-adv-x="568" 
d="M273 748q125 0 220 -78l-28 -42q-84 72 -193 72q-76 0 -124 -38.5t-48 -112.5q0 -63 43 -93t152 -55q128 -30 183.5 -75.5t55.5 -128.5q0 -94 -67 -152t-178 -58q-149 0 -253 90l31 42q41 -39 100.5 -61.5t122.5 -22.5q85 0 139.5 42t54.5 118q0 62 -48 97t-155 59
q-128 29 -180 72t-52 125q0 94 61.5 147t162.5 53zM280 -57q20 0 33.5 -13.5t13.5 -33.5q0 -13 -6 -25l-51 -135h-4v205q4 2 14 2z" />
    <glyph glyph-name="scommaaccent" unicode="&#x219;" horiz-adv-x="442" 
d="M220 507q86 0 155 -53l-23 -38q-60 46 -131 46q-54 0 -86 -22.5t-32 -68.5q0 -39 28.5 -58t102.5 -37q88 -20 128 -52.5t40 -87.5q0 -66 -49.5 -106t-130.5 -40q-106 0 -181 60l25 39q65 -54 157 -54q59 0 95 25.5t36 73.5q0 40 -31.5 61t-104.5 38q-88 20 -126 50
t-38 86q0 66 45 102t121 36zM203 -57q20 0 33.5 -13.5t13.5 -33.5q0 -13 -6 -25l-51 -135h-4v205q4 2 14 2z" />
    <glyph glyph-name="circumflex" unicode="&#x2c6;" horiz-adv-x="331" 
d="M165 719l142 -142h-52l-90 86l-89 -86h-53z" />
    <glyph glyph-name="caron" unicode="&#x2c7;" horiz-adv-x="331" 
d="M307 717l-142 -142l-142 142h53l89 -86l90 86h52z" />
    <glyph glyph-name="breve" unicode="&#x2d8;" horiz-adv-x="325" 
d="M302 712q0 -57 -40 -94.5t-99 -37.5q-60 0 -100 37.5t-40 94.5h40q0 -40 28 -66.5t72 -26.5q43 0 71.5 26.5t28.5 66.5h39z" />
    <glyph glyph-name="dotaccent" unicode="&#x2d9;" horiz-adv-x="129" 
d="M64 693q18 0 30 -12t12 -29q0 -18 -12 -29.5t-30 -11.5q-17 0 -29 11.5t-12 29.5q0 17 12 29t29 12z" />
    <glyph glyph-name="ring" unicode="&#x2da;" horiz-adv-x="240" 
d="M120 765q41 0 69 -28t28 -69t-27.5 -67.5t-69.5 -26.5t-69.5 26.5t-27.5 67.5t28 69t69 28zM120 730q-26 0 -44 -18t-18 -44t18 -43t44 -17t44 17t18 43t-18 44t-44 18z" />
    <glyph glyph-name="ogonek" unicode="&#x2db;" horiz-adv-x="212" 
d="M108 31l12 -31q-49 -20 -49 -72q0 -38 23 -59t60 -21q20 0 32 6l12 -34q-15 -7 -45 -7q-54 0 -87 31t-33 84q0 74 75 103z" />
    <glyph glyph-name="tilde" unicode="&#x2dc;" horiz-adv-x="348" 
d="M109 701q24 0 43.5 -14t30.5 -31t26.5 -31t31.5 -14q47 0 47 83h37q0 -60 -23.5 -90.5t-62.5 -30.5q-24 0 -43.5 14t-30 30.5t-26 30.5t-31.5 14q-47 0 -47 -83h-38q0 61 23.5 91.5t62.5 30.5z" />
    <glyph glyph-name="hungarumlaut" unicode="&#x2dd;" horiz-adv-x="351" 
d="M228 709l-118 -138h-44l110 138h52zM374 709l-117 -138h-45l110 138h52z" />
    <glyph glyph-name="uni03A9" unicode="&#x3a9;" horiz-adv-x="858" 
d="M436 748q148 0 238 -96.5t90 -246.5q0 -206 -188 -355h245v-50h-328v48q100 63 159.5 153.5t59.5 202.5q0 129 -74 211.5t-202 82.5t-202.5 -82.5t-74.5 -211.5q0 -112 59.5 -202.5t159.5 -153.5v-48h-328v50h246q-188 149 -188 355q0 150 89.5 246.5t238.5 96.5z" />
    <glyph glyph-name="pi" unicode="&#x3c0;" horiz-adv-x="670" 
d="M614 576l35 -22q-24 -54 -56.5 -75t-104.5 -21h-21l-42 -323q-6 -51 4.5 -72t44.5 -21q49 0 84 30l19 -32q-52 -42 -115 -42q-53 0 -70.5 32t-9.5 99l43 329h-149l-38 -277q-13 -101 -46 -181h-49q39 81 53 189l37 269h-39q-80 0 -148 -68l-23 32q45 43 85 61t115 18h245
q48 0 75.5 8t41.5 22.5t29 44.5z" />
    <glyph glyph-name="Wgrave" unicode="&#x1e80;" horiz-adv-x="994" 
d="M981 735l-277 -748h-4l-203 603l-203 -603h-4l-277 748h57l221 -608l204 608h4l204 -608l221 608h57zM395 883l141 -111h-62l-147 111h68z" />
    <glyph glyph-name="wgrave" unicode="&#x1e81;" horiz-adv-x="753" 
d="M739 497l-203 -507h-4l-155 397l-156 -397h-4l-204 507h54l154 -393l154 393h4l153 -393l154 393h53zM272 695l143 -116h-59l-150 116h66z" />
    <glyph glyph-name="Wacute" unicode="&#x1e82;" horiz-adv-x="994" 
d="M981 735l-277 -748h-4l-203 603l-203 -603h-4l-277 748h57l221 -608l204 608h4l204 -608l221 608h57zM660 883l-147 -111h-61l140 111h68z" />
    <glyph glyph-name="wacute" unicode="&#x1e83;" horiz-adv-x="753" 
d="M739 497l-203 -507h-4l-155 397l-156 -397h-4l-204 507h54l154 -393l154 393h4l153 -393l154 393h53zM543 695l-150 -116h-58l142 116h66z" />
    <glyph glyph-name="Wdieresis" unicode="&#x1e84;" horiz-adv-x="994" 
d="M981 735l-277 -748h-4l-203 603l-203 -603h-4l-277 748h57l221 -608l204 608h4l204 -608l221 608h57zM421 860q16 0 27.5 -11t11.5 -27t-11 -27t-28 -11q-16 0 -27 11t-11 27t11 27t27 11zM571 860q16 0 27.5 -11t11.5 -27t-11.5 -27t-27.5 -11t-27 11t-11 27t11 27
t27 11z" />
    <glyph glyph-name="wdieresis" unicode="&#x1e85;" horiz-adv-x="753" 
d="M739 497l-203 -507h-4l-155 397l-156 -397h-4l-204 507h54l154 -393l154 393h4l153 -393l154 393h53zM301 671q16 0 27.5 -11t11.5 -27t-11 -27t-28 -11q-16 0 -27 11t-11 27t11 27t27 11zM451 671q16 0 27.5 -11t11.5 -27t-11.5 -27t-27.5 -11t-27 11t-11 27t11 27
t27 11z" />
    <glyph glyph-name="Ygrave" unicode="&#x1ef2;" horiz-adv-x="623" 
d="M613 734l-276 -413v-321h-51v321l-276 413h60l241 -361l241 361h61zM209 883l141 -111h-62l-147 111h68z" />
    <glyph glyph-name="ygrave" unicode="&#x1ef3;" horiz-adv-x="525" 
d="M503 497l-340 -727h-55l128 266l-214 461h53l187 -406l187 406h54zM156 695l143 -116h-59l-150 116h66z" />
    <glyph glyph-name="endash" unicode="&#x2013;" horiz-adv-x="562" 
d="M518 282v-47h-475v47h475z" />
    <glyph glyph-name="emdash" unicode="&#x2014;" horiz-adv-x="806" 
d="M763 282v-47h-720v47h720z" />
    <glyph glyph-name="quoteleft" unicode="&#x2018;" horiz-adv-x="158" 
d="M105 754v-212q-5 -2 -14 -2q-21 0 -34.5 13t-13.5 34q0 11 7 25l51 142h4z" />
    <glyph glyph-name="quoteright" unicode="&#x2019;" horiz-adv-x="158" 
d="M68 745q20 0 33.5 -13t13.5 -34q0 -9 -6 -25l-52 -142h-4v212q5 2 15 2z" />
    <glyph glyph-name="quotesinglbase" unicode="&#x201a;" horiz-adv-x="158" 
d="M68 82q20 0 33.5 -13.5t13.5 -34.5q0 -8 -6 -24l-52 -142h-4v212q10 2 15 2z" />
    <glyph glyph-name="quotedblleft" unicode="&#x201c;" horiz-adv-x="315" 
d="M105 754v-212q-5 -2 -14 -2q-21 0 -34.5 13t-13.5 34q0 11 7 25l51 142h4zM261 754v-212q-5 -2 -14 -2q-21 0 -34.5 13t-13.5 34q0 11 7 25l51 142h4z" />
    <glyph glyph-name="quotedblright" unicode="&#x201d;" horiz-adv-x="315" 
d="M68 745q20 0 33.5 -13t13.5 -34q0 -9 -6 -25l-52 -142h-4v212q5 2 15 2zM224 745q20 0 33.5 -13t13.5 -34q0 -9 -6 -25l-52 -142h-4v212q5 2 15 2z" />
    <glyph glyph-name="quotedblbase" unicode="&#x201e;" horiz-adv-x="319" 
d="M68 82q20 0 33.5 -13.5t13.5 -34.5q0 -8 -6 -24l-52 -142h-4v212q10 2 15 2zM228 82q20 0 33.5 -13.5t13.5 -34.5q0 -8 -6 -24l-52 -142h-4v212q10 2 15 2z" />
    <glyph glyph-name="dagger" unicode="&#x2020;" horiz-adv-x="488" 
d="M268 735v-190h187v-46h-187v-499h-49v499h-186v46h186v190h49z" />
    <glyph glyph-name="daggerdbl" unicode="&#x2021;" horiz-adv-x="488" 
d="M268 735v-190h187v-46h-187v-263h187v-46h-187v-190h-48v190h-187v46h187v263h-187v46h187v190h48z" />
    <glyph glyph-name="bullet" unicode="&#x2022;" horiz-adv-x="295" 
d="M147 364q47 0 76.5 -30t29.5 -76t-30 -75.5t-76 -29.5t-75.5 29.5t-29.5 75.5t29.5 76t75.5 30z" />
    <glyph glyph-name="ellipsis" unicode="&#x2026;" horiz-adv-x="571" 
d="M87 84q20 0 33.5 -13t13.5 -34q0 -20 -13.5 -33.5t-33.5 -13.5t-34 13.5t-14 33.5t14 33.5t34 13.5zM285 84q21 0 34.5 -13t13.5 -34q0 -20 -14 -33.5t-34 -13.5t-33.5 13.5t-13.5 33.5t13.5 33.5t33.5 13.5zM484 84q20 0 33.5 -13t13.5 -34q0 -20 -13.5 -33.5
t-33.5 -13.5t-33.5 13.5t-13.5 33.5t13.5 33.5t33.5 13.5z" />
    <glyph glyph-name="perthousand" unicode="&#x2030;" horiz-adv-x="1247" 
d="M681 735l-485 -735h-53l485 735h53zM195 748q74 0 122.5 -52t48.5 -131t-48.5 -130t-122.5 -51q-75 0 -123 51t-48 130t48 131t123 52zM195 708q-56 0 -93 -40.5t-37 -102.5q0 -61 37 -101t93 -40q57 0 93.5 40t36.5 101q0 62 -36.5 102.5t-93.5 40.5zM630 351
q74 0 123 -51.5t49 -130.5t-48.5 -130t-123.5 -51q-74 0 -122.5 51t-48.5 130t48.5 130.5t122.5 51.5zM630 311q-56 0 -93 -40.5t-37 -101.5t37 -101t93 -40q57 0 94 40t37 101q0 62 -37 102t-94 40zM1025 351q74 0 122.5 -51.5t48.5 -130.5t-48.5 -130t-122.5 -51
q-75 0 -123.5 51t-48.5 130t48.5 130.5t123.5 51.5zM1025 311q-57 0 -94 -40t-37 -102q0 -61 37 -101t94 -40q56 0 92.5 40t36.5 101q0 62 -36.5 102t-92.5 40z" />
    <glyph glyph-name="guilsinglleft" unicode="&#x2039;" horiz-adv-x="301" 
d="M286 458l-210 -202l210 -202h-62l-209 200v4l209 200h62z" />
    <glyph glyph-name="guilsinglright" unicode="&#x203a;" horiz-adv-x="301" 
d="M78 458l208 -200v-4l-208 -200h-63l210 202l-210 202h63z" />
    <glyph glyph-name="fraction" unicode="&#x2044;" horiz-adv-x="176" 
d="M294 734l-364 -734h-48l365 734h47z" />
    <glyph glyph-name="zero.sups" unicode="&#x2070;" horiz-adv-x="380" 
d="M192 821q72 0 111 -58t39 -159t-39 -159.5t-111 -58.5t-112 58.5t-40 159.5q0 100 39.5 158.5t112.5 58.5zM192 783q-54 0 -82 -47.5t-28 -131.5t28 -131.5t82 -47.5q53 0 81 48t28 131t-28 131t-81 48z" />
    <glyph glyph-name="four.sups" unicode="&#x2074;" horiz-adv-x="354" 
d="M266 822v-307h66v-35h-66v-86h-41v87h-202v2l240 339h3zM226 710l-135 -195h135v195z" />
    <glyph glyph-name="five.sups" unicode="&#x2075;" horiz-adv-x="348" 
d="M288 813v-39h-180v-143q32 18 71 18q61 0 99 -36.5t38 -95.5q0 -56 -37 -93.5t-98 -37.5q-99 0 -137 89l36 17q27 -67 99 -67q42 0 69 27t27 67q0 41 -27 67t-73 26q-44 0 -85 -28l-23 10v219h221z" />
    <glyph glyph-name="six.sups" unicode="&#x2076;" horiz-adv-x="351" 
d="M176 659q59 0 100 -39t41 -98q0 -58 -41 -97t-100 -39t-99.5 38.5t-40.5 97.5q0 50 30 86l145 205h48l-110 -156q18 2 27 2zM176 622q-42 0 -70.5 -28.5t-28.5 -71.5t28.5 -71.5t70.5 -28.5t71 28.5t29 71.5t-29 71.5t-71 28.5z" />
    <glyph glyph-name="seven.sups" unicode="&#x2077;" horiz-adv-x="348" 
d="M322 813v-4l-228 -415h-46l213 380h-228v39h289z" />
    <glyph glyph-name="eight.sups" unicode="&#x2078;" horiz-adv-x="351" 
d="M174 821q50 0 85 -31.5t35 -78.5q0 -32 -16.5 -57t-43.5 -37q36 -15 58 -43.5t22 -63.5q0 -53 -41 -88.5t-99 -35.5t-99 35.5t-41 88.5q0 35 21.5 63.5t57.5 42.5q-59 29 -59 95q0 47 35 78.5t85 31.5zM174 596q-42 0 -70.5 -25t-28.5 -62t29 -61.5t70 -24.5q42 0 71 25
t29 61q0 37 -29 62t-71 25zM174 785q-34 0 -57.5 -22t-23.5 -53q0 -34 23.5 -56t57.5 -22t57.5 22t23.5 56q0 31 -23.5 53t-57.5 22z" />
    <glyph glyph-name="nine.sups" unicode="&#x2079;" horiz-adv-x="351" 
d="M177 820q59 0 99.5 -38.5t40.5 -96.5q0 -48 -30 -86l-145 -205h-48l110 156q-18 -2 -27 -2q-59 0 -100 39t-41 98q0 58 41 96.5t100 38.5zM177 784q-42 0 -71 -28t-29 -71t29 -71.5t71 -28.5t70.5 28.5t28.5 71.5t-28.5 71t-70.5 28z" />
    <glyph glyph-name="n.sups" unicode="&#x207f;" horiz-adv-x="415" 
d="M226 744q62 0 97 -40t35 -107v-209h-43v207q0 49 -26 78.5t-71 29.5q-60 0 -109 -62v-253h-43v349h40v-49q49 56 120 56z" />
    <glyph glyph-name="Euro" unicode="&#x20ac;" horiz-adv-x="652" 
d="M420 303v-40h-260q21 -108 82.5 -169t151.5 -61q107 0 186 77l31 -37q-91 -87 -217 -87q-112 0 -188 74t-99 203h-68v40h63q-3 30 -3 64q0 33 3 65h-63v40h68q23 130 97.5 203t186.5 73q128 0 214 -86l-32 -36q-75 75 -182 75q-89 0 -150 -61t-81 -168h260v-40h-266
q-3 -32 -3 -65q0 -34 3 -64h266z" />
    <glyph glyph-name="afii61289" unicode="&#x2113;" horiz-adv-x="584" 
d="M318 750q67 0 102.5 -38t35.5 -100q0 -61 -34 -125.5t-79.5 -114t-118.5 -115.5v-98q0 -62 22 -94.5t82 -32.5q22 0 43.5 9t36 20t30 29.5t23 29.5t17.5 28l10 17l29 -21q-87 -153 -197 -153q-42 0 -70.5 12.5t-42.5 35.5t-19.5 49t-5.5 60v75q-66 -59 -105 -89l-23 32
q92 78 126 110v314q0 79 31.5 119.5t106.5 40.5zM318 713q-51 0 -74 -29.5t-23 -90.5v-288q93 86 144.5 159t51.5 145q0 50 -25.5 77t-73.5 27z" />
    <glyph glyph-name="trademark" unicode="&#x2122;" horiz-adv-x="802" 
d="M336 735v-40h-138v-336h-40v336h-137v40h315zM763 742v-383h-41v250l-143 -251h-3l-143 251v-250h-40v383h2l183 -312l183 312h2z" />
    <glyph glyph-name="Omega" unicode="&#x2126;" horiz-adv-x="858" 
d="M436 748q148 0 238 -96.5t90 -246.5q0 -206 -188 -355h245v-50h-328v48q100 63 159.5 153.5t59.5 202.5q0 129 -74 211.5t-202 82.5t-202.5 -82.5t-74.5 -211.5q0 -112 59.5 -202.5t159.5 -153.5v-48h-328v50h246q-188 149 -188 355q0 150 89.5 246.5t238.5 96.5z" />
    <glyph glyph-name="estimated" unicode="&#x212e;" horiz-adv-x="591" 
d="M308 514q-44 0 -86 -14.5t-67 -37.5q-29 -24 -29 -55v-102h342v107q0 42 -25 60q-54 42 -135 42zM308 537q108 0 178 -69t70 -187h-430v-159q0 -36 27 -54q66 -55 155 -55q140 0 227 129l19 -12q-88 -141 -246 -141q-115 0 -194 77t-79 197t79 197t194 77z" />
    <glyph glyph-name="partialdiff" unicode="&#x2202;" horiz-adv-x="524" 
d="M244 748q244 0 244 -441q0 -49 -1 -73t-9 -62.5t-24 -66.5q-29 -54 -79 -83t-112 -29q-97 0 -162 66t-65 167q0 102 64.5 168.5t160.5 66.5q115 0 177 -101q-10 341 -197 341q-96 0 -151 -80l-34 31q69 96 188 96zM264 414q-78 0 -129 -53t-51 -135q0 -81 51 -133.5
t129 -52.5q77 0 126.5 52.5t49.5 133.5q0 82 -49.5 135t-126.5 53z" />
    <glyph glyph-name="uni2206" unicode="&#x2206;" horiz-adv-x="721" 
d="M361 646l325 -646h-651zM361 559l-263 -521h525z" />
    <glyph glyph-name="product" unicode="&#x220f;" horiz-adv-x="706" 
d="M671 740v-45h-149v-796h-44v796h-250v-796h-44v796h-149v45h636z" />
    <glyph glyph-name="summation" unicode="&#x2211;" horiz-adv-x="610" 
d="M563 740v-47h-460l217 -311l-223 -335h478v-47h-540v34l230 347l-227 325v34h525z" />
    <glyph glyph-name="minus" unicode="&#x2212;" horiz-adv-x="459" 
d="M415 373v-46h-372v46h372z" />
    <glyph glyph-name="radical" unicode="&#x221a;" horiz-adv-x="697" 
d="M619 693l39 -17l-287 -746l-175 347l-132 -76l-21 34l177 104l150 -304z" />
    <glyph glyph-name="infinity" unicode="&#x221e;" horiz-adv-x="730" 
d="M543 442q69 0 112.5 -47.5t43.5 -117.5t-43.5 -117.5t-112.5 -47.5q-27 0 -51.5 9t-49.5 29.5t-34.5 30t-32.5 34.5l-24 25l-23 -26q-76 -86 -148 -86q-64 0 -101.5 42.5t-37.5 105.5q0 64 37.5 107t101.5 43q42 0 75 -22.5t72 -66.5l24 -27l17 21q31 36 51.5 56t54 37.5
t69.5 17.5zM543 399q-29 0 -57.5 -16.5t-44 -32.5t-45.5 -51l-18 -24l23 -26q1 -2 14.5 -16.5t18 -19t17 -16.5t21 -17t21 -12.5t25 -10t25.5 -2.5q50 0 81.5 35.5t31.5 86.5q0 52 -31.5 87t-81.5 35zM180 385q-45 0 -72 -31t-27 -78q0 -46 27 -76t72 -30q60 0 123 78l22 27
l-23 28q-34 40 -61.5 61t-60.5 21z" />
    <glyph glyph-name="integral" unicode="&#x222b;" horiz-adv-x="434" 
d="M313 750q61 0 100 -25l-11 -36q-35 21 -79 21q-83 0 -83 -120v-615q0 -86 -31 -125.5t-92 -39.5q-65 0 -104 26l11 36q32 -22 84 -22q89 0 89 125v615q0 84 29 122t87 38z" />
    <glyph glyph-name="approxequal" unicode="&#x2248;" horiz-adv-x="572" 
d="M179 325q36 0 66 -14.5t47.5 -32t44.5 -32t56 -14.5q82 0 113 87l34 -22q-43 -111 -147 -111q-36 0 -66 14.5t-47 32.5t-44 32.5t-57 14.5q-81 0 -113 -88l-34 22q20 51 57.5 81t89.5 30zM179 518q36 0 66 -14.5t47.5 -32t44.5 -32t56 -14.5q82 0 113 87l34 -22
q-43 -111 -147 -111q-36 0 -66 14.5t-47 32t-44 32t-57 14.5q-82 0 -113 -87l-34 21q20 51 57 81.5t90 30.5z" />
    <glyph glyph-name="notequal" unicode="&#x2260;" horiz-adv-x="459" 
d="M415 267v-46h-212l-38 -101h-47l38 101h-113v46h131l63 166h-194v46h211l43 111h47l-43 -111h114v-46h-131l-63 -166h194z" />
    <glyph glyph-name="lessequal" unicode="&#x2264;" horiz-adv-x="322" 
d="M299 576l-208 -171l208 -170h-69l-207 168v4l207 169h69zM299 176v-45h-276v45h276z" />
    <glyph glyph-name="greaterequal" unicode="&#x2265;" horiz-adv-x="322" 
d="M92 576l207 -169v-4l-207 -168h-69l208 170l-208 171h69zM299 176v-45h-276v45h276z" />
    <glyph glyph-name="lozenge" unicode="&#x25ca;" horiz-adv-x="569" 
d="M309 738l233 -402l-233 -401h-31l-234 401l234 402h31zM294 671l-202 -335l202 -336l201 336z" />
    <glyph glyph-name="commaaccent" unicode="&#xf6c3;" horiz-adv-x="116" 
d="M42 -57q20 0 33.5 -13.5t13.5 -33.5q0 -13 -6 -25l-51 -135h-4v205q4 2 14 2z" />
    <glyph glyph-name="CR" horiz-adv-x="250" 
 />
    <glyph glyph-name="germandbls.cap" horiz-adv-x="641" 
d="M318 748q138 0 226 -101l-156 -218q86 -11 146.5 -66.5t60.5 -154.5q0 -97 -64.5 -159t-166.5 -62q-85 0 -145 36l19 45q55 -33 126 -33q74 0 126 47t52 127q0 89 -64 135.5t-167 46.5l-2 5l171 242q-59 61 -162 61q-85 0 -139 -51.5t-54 -144.5v-503h-51v502
q0 114 69 180t175 66z" />
    <glyph glyph-name="endash_guilsinglright" horiz-adv-x="656" 
d="M332 531l277 -252l-277 -252l-25 31l220 200h-480v42h481l-221 200z" />
    <glyph glyph-name="emdash_guilsinglright" horiz-adv-x="986" 
d="M662 531l278 -252l-278 -252l-25 31l221 200h-811v42h811l-221 200z" />
    <glyph glyph-name="guilsinglleft_endash" horiz-adv-x="656" 
d="M324 531l25 -31l-221 -200h481v-42h-481l221 -200l-25 -31l-277 252z" />
    <glyph glyph-name="guilsinglleft_emdash" horiz-adv-x="986" 
d="M324 531l25 -31l-221 -200h812v-42h-812l221 -200l-25 -31l-277 252z" />
    <glyph glyph-name="at.cap" horiz-adv-x="824" 
d="M412 742q165 0 271 -106t106 -269q0 -101 -40 -160.5t-111 -59.5q-35 0 -56 17t-24 48l-1 5q-56 -70 -153 -70q-85 0 -139 61t-54 155q0 95 54 156t139 61q96 0 151 -67l1 59h40v-342q0 -44 45 -44q51 0 79 50.5t28 130.5q0 145 -95 239.5t-241 94.5t-240.5 -95
t-94.5 -240q0 -146 93.5 -240.5t239.5 -94.5q72 0 133 24l15 -37q-71 -27 -148 -27q-164 0 -269.5 105.5t-105.5 269.5q0 163 106.5 269.5t270.5 106.5zM411 541q-68 0 -112.5 -50t-44.5 -128t44 -127.5t113 -49.5q88 0 143 78v199q-58 78 -143 78z" />
    <glyph glyph-name="grave.cap" horiz-adv-x="256" 
d="M100 883l141 -111h-62l-147 111h68z" />
    <glyph glyph-name="acute.cap" horiz-adv-x="256" 
d="M223 883l-147 -111h-61l140 111h68z" />
    <glyph glyph-name="circumflex.cap" horiz-adv-x="334" 
d="M167 906l143 -135h-53l-90 85l-91 -85h-53z" />
    <glyph glyph-name="caron.cap" horiz-adv-x="334" 
d="M310 900l-143 -135l-144 135h53l91 -85l90 85h53z" />
    <glyph glyph-name="tilde.cap" horiz-adv-x="348" 
d="M109 899q24 0 43.5 -14t30.5 -31t26.5 -31t31.5 -14q47 0 47 83h37q0 -60 -23.5 -90.5t-62.5 -30.5q-24 0 -43.5 14t-30 30.5t-26 30.5t-31.5 14q-47 0 -47 -83h-38q0 61 23.5 91.5t62.5 30.5z" />
    <glyph glyph-name="dieresis.cap" horiz-adv-x="273" 
d="M61 860q16 0 27.5 -11t11.5 -27t-11 -27t-28 -11q-16 0 -27 11t-11 27t11 27t27 11zM211 860q16 0 27.5 -11t11.5 -27t-11.5 -27t-27.5 -11t-27 11t-11 27t11 27t27 11z" />
    <glyph glyph-name="macron.cap" horiz-adv-x="292" 
d="M268 830v-39h-245v39h245z" />
    <glyph glyph-name="breve.cap" horiz-adv-x="325" 
d="M302 903q0 -56 -40 -93t-99 -37q-60 0 -100 37t-40 93h39q0 -39 29 -65.5t72 -26.5t71.5 26.5t28.5 65.5h39z" />
    <glyph glyph-name="ring.cap" horiz-adv-x="240" 
d="M120 962q41 0 69 -27.5t28 -68.5t-28 -68t-69 -27t-69 27t-28 68t28 68.5t69 27.5zM120 928q-26 0 -44 -18t-18 -44t18 -43t44 -17t44 17t18 43t-18 44t-44 18z" />
    <glyph glyph-name="hungarumlaut.cap" horiz-adv-x="351" 
d="M228 892l-115 -117h-43l106 117h52zM373 892l-115 -117h-44l106 117h53z" />
    <glyph glyph-name="dotaccent.cap" horiz-adv-x="127" 
d="M63 853q17 0 28.5 -11.5t11.5 -28.5q0 -16 -11.5 -27.5t-28.5 -11.5t-28.5 11t-11.5 28t11.5 28.5t28.5 11.5z" />
    <glyph glyph-name="parenleft.cap" horiz-adv-x="260" 
d="M201 762l35 -29q-137 -161 -137 -366t137 -366l-35 -29q-149 171 -149 395t149 395z" />
    <glyph glyph-name="parenright.cap" horiz-adv-x="260" 
d="M59 762q148 -169 148 -395t-148 -395l-36 29q138 159 138 366t-138 366z" />
    <glyph glyph-name="bracketleft.cap" horiz-adv-x="282" 
d="M257 777v-44h-154v-732h154v-44h-202v820h202z" />
    <glyph glyph-name="bracketright.cap" horiz-adv-x="292" 
d="M237 777v-820h-212v44h163v732h-163v44h212z" />
    <glyph glyph-name="braceleft.cap" horiz-adv-x="329" 
d="M304 777v-44q-64 0 -102.5 -36t-28.5 -119l10 -91q8 -49 -7.5 -76.5t-52.5 -43.5q37 -16 52.5 -43.5t7.5 -76.5l-10 -91q-10 -83 28.5 -119t102.5 -36v-44q-90 0 -142.5 50.5t-35.5 156.5l10 90q8 46 -19 71.5t-85 39.5v4q58 14 85 39.5t19 71.5l-10 90
q-17 106 35.5 156.5t142.5 50.5z" />
    <glyph glyph-name="braceright.cap" horiz-adv-x="329" 
d="M25 777q90 0 142.5 -50.5t36.5 -156.5l-11 -90q-8 -46 19 -71.5t85 -39.5v-4q-58 -14 -85 -39.5t-19 -71.5l11 -90q16 -106 -36.5 -156.5t-142.5 -50.5v44q64 0 102 36t28 119l-9 91q-8 49 7.5 76.5t52.5 43.5q-37 16 -52.5 43.5t-7.5 76.5l9 91q10 83 -28 119t-102 36
v44z" />
    <glyph glyph-name="guilsinglleft.cap" horiz-adv-x="301" 
d="M286 576l-210 -222l210 -222h-62l-209 220v4l209 220h62z" />
    <glyph glyph-name="guilsinglright.cap" horiz-adv-x="301" 
d="M78 576l208 -220v-4l-208 -220h-63l210 222l-210 222h63z" />
    <glyph glyph-name="guillemotleft.cap" horiz-adv-x="441" 
d="M220 576l-154 -222l154 -222h-51l-154 220v4l154 220h51zM426 576l-155 -222l155 -222h-51l-154 220v4l154 220h51z" />
    <glyph glyph-name="guillemotright.cap" horiz-adv-x="441" 
d="M66 576l154 -220v-4l-154 -220h-51l155 222l-155 222h51zM271 576l155 -220v-4l-155 -220h-50l154 222l-154 222h50z" />
    <glyph glyph-name="exclamdown.cap" horiz-adv-x="230" 
d="M92 0v551h48v-551h-48zM116 666q-18 0 -30 12t-12 29q0 18 12 29.5t30 11.5q17 0 28.5 -11.5t11.5 -29.5q0 -17 -11.5 -29t-28.5 -12z" />
    <glyph glyph-name="questiondown.cap" horiz-adv-x="456" 
d="M236 -13q-86 0 -140 53.5t-54 138.5q0 46 17 83.5t41.5 62t49 47t41.5 49.5t17 58v72h50v-76q0 -37 -17 -68t-41 -54t-48.5 -46t-41.5 -55.5t-17 -72.5q0 -68 40.5 -106.5t103.5 -38.5q121 0 149 125l48 -10q-35 -162 -198 -162zM233 666q-18 0 -30 12t-12 29
q0 18 12 29.5t30 11.5q17 0 29 -11.5t12 -29.5q0 -17 -12 -29t-29 -12z" />
    <glyph glyph-name="endash.cap" horiz-adv-x="562" 
d="M518 380v-47h-475v47h475z" />
    <glyph glyph-name="periodcentered.cap" horiz-adv-x="151" 
d="M75 396q18 0 30 -12t12 -30q0 -17 -12 -29t-30 -12t-30 12t-12 29q0 18 12 30t30 12z" />
    <glyph glyph-name="emdash.cap" horiz-adv-x="806" 
d="M763 380v-47h-720v47h720z" />
    <glyph glyph-name="hyphen.cap" horiz-adv-x="443" 
d="M399 380v-47h-356v47h356z" />
    <glyph glyph-name="zero.dnom" horiz-adv-x="383" 
d="M192 427q72 0 111 -58t39 -159t-39 -159.5t-111 -58.5t-112 58.5t-40 159.5q0 100 39.5 158.5t112.5 58.5zM192 389q-54 0 -82 -47.5t-28 -131.5t28 -131.5t82 -47.5q53 0 81 48t28 131t-28 131t-81 48z" />
    <glyph glyph-name="one.dnom" horiz-adv-x="248" 
d="M181 427v-427h-42v353l-86 -61l-22 35l148 100h2z" />
    <glyph glyph-name="two.dnom" horiz-adv-x="349" 
d="M177 427q56 0 91.5 -33.5t35.5 -88.5q0 -39 -14 -69t-45 -66l-114 -131h180v-39h-255v4l156 189q51 58 51 112q0 38 -24 61t-62 23q-72 0 -89 -74l-38 8q22 104 127 104z" />
    <glyph glyph-name="three.dnom" horiz-adv-x="347" 
d="M176 427q54 0 88 -32.5t34 -82.5q0 -68 -64 -92q82 -27 82 -103q0 -56 -37 -90.5t-97 -34.5q-103 0 -140 96l37 11q15 -33 38.5 -50.5t64.5 -17.5t66.5 24t25.5 64q0 36 -28.5 60t-72.5 24h-49v34h51q34 0 58 19t24 56q0 34 -23 55.5t-59 21.5q-65 0 -90 -64l-37 16
q34 86 128 86z" />
    <glyph glyph-name="four.dnom" horiz-adv-x="357" 
d="M266 428v-307h66v-35h-66v-86h-41v87h-202v2l240 339h3zM226 316l-135 -195h135v195z" />
    <glyph glyph-name="five.dnom" horiz-adv-x="351" 
d="M288 419v-39h-180v-143q32 18 71 18q61 0 99 -36.5t38 -95.5q0 -56 -37 -93.5t-98 -37.5q-99 0 -137 89l36 17q27 -67 99 -67q42 0 69 27t27 67q0 41 -27 67t-73 26q-44 0 -85 -28l-23 10v219h221z" />
    <glyph glyph-name="six.dnom" horiz-adv-x="354" 
d="M176 265q59 0 100 -39t41 -98q0 -58 -41 -97t-100 -39t-99.5 38.5t-40.5 97.5q0 50 30 86l145 205h48l-110 -156q18 2 27 2zM176 228q-42 0 -70.5 -28.5t-28.5 -71.5t28.5 -71.5t70.5 -28.5t71 28.5t29 71.5t-29 71.5t-71 28.5z" />
    <glyph glyph-name="seven.dnom" horiz-adv-x="351" 
d="M322 419v-4l-228 -415h-46l213 380h-228v39h289z" />
    <glyph glyph-name="eight.dnom" horiz-adv-x="353" 
d="M174 427q50 0 85 -31.5t35 -78.5q0 -32 -16.5 -57t-43.5 -37q36 -15 58 -43.5t22 -63.5q0 -53 -41 -88.5t-99 -35.5t-99 35.5t-41 88.5q0 35 21.5 63.5t57.5 42.5q-59 29 -59 95q0 47 35 78.5t85 31.5zM174 202q-42 0 -70.5 -25t-28.5 -62t29 -61.5t70 -24.5q42 0 71 25
t29 61q0 37 -29 62t-71 25zM174 391q-34 0 -57.5 -22t-23.5 -53q0 -34 23.5 -56t57.5 -22t57.5 22t23.5 56q0 31 -23.5 53t-57.5 22z" />
    <glyph glyph-name="nine.dnom" horiz-adv-x="354" 
d="M177 426q59 0 99.5 -38.5t40.5 -96.5q0 -48 -30 -86l-145 -205h-48l110 156q-18 -2 -27 -2q-59 0 -100 39t-41 98q0 58 41 96.5t100 38.5zM177 390q-42 0 -71 -28t-29 -71t29 -71.5t71 -28.5t70.5 28.5t28.5 71.5t-28.5 71t-70.5 28z" />
    <glyph glyph-name="zero.numr" horiz-adv-x="380" 
d="M192 741q72 0 111 -58t39 -159t-39 -159.5t-111 -58.5t-112 58.5t-40 159.5q0 100 39.5 158.5t112.5 58.5zM192 703q-54 0 -82 -47.5t-28 -131.5t28 -131.5t82 -47.5q53 0 81 48t28 131t-28 131t-81 48z" />
    <glyph glyph-name="one.numr" horiz-adv-x="245" 
d="M181 741v-427h-42v353l-86 -61l-22 35l148 100h2z" />
    <glyph glyph-name="two.numr" horiz-adv-x="346" 
d="M177 741q56 0 91.5 -33.5t35.5 -88.5q0 -39 -14 -69t-45 -66l-114 -131h180v-39h-255v4l156 189q51 58 51 112q0 38 -24 61t-62 23q-72 0 -89 -74l-38 8q22 104 127 104z" />
    <glyph glyph-name="three.numr" horiz-adv-x="343" 
d="M176 741q54 0 88 -32.5t34 -82.5q0 -68 -64 -92q82 -27 82 -103q0 -56 -37 -90.5t-97 -34.5q-103 0 -140 96l37 11q15 -33 38.5 -50.5t64.5 -17.5t66.5 24t25.5 64q0 36 -28.5 60t-72.5 24h-49v34h51q34 0 58 19t24 56q0 34 -23 55.5t-59 21.5q-65 0 -90 -64l-37 16
q34 86 128 86z" />
    <glyph glyph-name="four.numr" horiz-adv-x="354" 
d="M266 742v-307h66v-35h-66v-86h-41v87h-202v2l240 339h3zM226 630l-135 -195h135v195z" />
    <glyph glyph-name="five.numr" horiz-adv-x="348" 
d="M288 733v-39h-180v-143q32 18 71 18q61 0 99 -36.5t38 -95.5q0 -56 -37 -93.5t-98 -37.5q-99 0 -137 89l36 17q27 -67 99 -67q42 0 69 27t27 67q0 41 -27 67t-73 26q-44 0 -85 -28l-23 10v219h221z" />
    <glyph glyph-name="six.numr" horiz-adv-x="351" 
d="M176 579q59 0 100 -39t41 -98q0 -58 -41 -97t-100 -39t-99.5 38.5t-40.5 97.5q0 50 30 86l145 205h48l-110 -156q18 2 27 2zM176 542q-42 0 -70.5 -28.5t-28.5 -71.5t28.5 -71.5t70.5 -28.5t71 28.5t29 71.5t-29 71.5t-71 28.5z" />
    <glyph glyph-name="seven.numr" horiz-adv-x="348" 
d="M322 733v-4l-228 -415h-46l213 380h-228v39h289z" />
    <glyph glyph-name="eight.numr" horiz-adv-x="351" 
d="M174 741q50 0 85 -31.5t35 -78.5q0 -32 -16.5 -57t-43.5 -37q36 -15 58 -43.5t22 -63.5q0 -53 -41 -88.5t-99 -35.5t-99 35.5t-41 88.5q0 35 21.5 63.5t57.5 42.5q-59 29 -59 95q0 47 35 78.5t85 31.5zM174 516q-42 0 -70.5 -25t-28.5 -62t29 -61.5t70 -24.5q42 0 71 25
t29 61q0 37 -29 62t-71 25zM174 705q-34 0 -57.5 -22t-23.5 -53q0 -34 23.5 -56t57.5 -22t57.5 22t23.5 56q0 31 -23.5 53t-57.5 22z" />
    <glyph glyph-name="nine.numr" horiz-adv-x="351" 
d="M177 740q59 0 99.5 -38.5t40.5 -96.5q0 -48 -30 -86l-145 -205h-48l110 156q-18 -2 -27 -2q-59 0 -100 39t-41 98q0 58 41 96.5t100 38.5zM177 704q-42 0 -71 -28t-29 -71t29 -71.5t71 -28.5t70.5 28.5t28.5 71.5t-28.5 71t-70.5 28z" />
    <glyph glyph-name="zero.subs" horiz-adv-x="380" 
d="M192 327q72 0 111 -58t39 -159t-39 -159.5t-111 -58.5t-112 58.5t-40 159.5q0 100 39.5 158.5t112.5 58.5zM192 289q-54 0 -82 -47.5t-28 -131.5t28 -131.5t82 -47.5q53 0 81 48t28 131t-28 131t-81 48z" />
    <glyph glyph-name="one.subs" horiz-adv-x="245" 
d="M181 327v-427h-42v353l-86 -61l-22 35l148 100h2z" />
    <glyph glyph-name="two.subs" horiz-adv-x="346" 
d="M177 327q56 0 91.5 -33.5t35.5 -88.5q0 -39 -14 -69t-45 -66l-114 -131h180v-39h-255v4l156 189q51 58 51 112q0 38 -24 61t-62 23q-72 0 -89 -74l-38 8q22 104 127 104z" />
    <glyph glyph-name="three.subs" horiz-adv-x="343" 
d="M176 327q54 0 88 -32.5t34 -82.5q0 -68 -64 -92q82 -27 82 -103q0 -56 -37 -90.5t-97 -34.5q-103 0 -140 96l37 11q15 -33 38.5 -50.5t64.5 -17.5t66.5 24t25.5 64q0 36 -28.5 60t-72.5 24h-49v34h51q34 0 58 19t24 56q0 34 -23 55.5t-59 21.5q-65 0 -90 -64l-37 16
q34 86 128 86z" />
    <glyph glyph-name="four.subs" horiz-adv-x="354" 
d="M266 328v-307h66v-35h-66v-86h-41v87h-202v2l240 339h3zM226 216l-135 -195h135v195z" />
    <glyph glyph-name="five.subs" horiz-adv-x="348" 
d="M288 319v-39h-180v-143q32 18 71 18q61 0 99 -36.5t38 -95.5q0 -56 -37 -93.5t-98 -37.5q-99 0 -137 89l36 17q27 -67 99 -67q42 0 69 27t27 67q0 41 -27 67t-73 26q-44 0 -85 -28l-23 10v219h221z" />
    <glyph glyph-name="six.subs" horiz-adv-x="351" 
d="M176 165q59 0 100 -39t41 -98q0 -58 -41 -97t-100 -39t-99.5 38.5t-40.5 97.5q0 50 30 86l145 205h48l-110 -156q18 2 27 2zM176 128q-42 0 -70.5 -28.5t-28.5 -71.5t28.5 -71.5t70.5 -28.5t71 28.5t29 71.5t-29 71.5t-71 28.5z" />
    <glyph glyph-name="seven.subs" horiz-adv-x="348" 
d="M322 319v-4l-228 -415h-46l213 380h-228v39h289z" />
    <glyph glyph-name="eight.subs" horiz-adv-x="351" 
d="M174 327q50 0 85 -31.5t35 -78.5q0 -32 -16.5 -57t-43.5 -37q36 -15 58 -43.5t22 -63.5q0 -53 -41 -88.5t-99 -35.5t-99 35.5t-41 88.5q0 35 21.5 63.5t57.5 42.5q-59 29 -59 95q0 47 35 78.5t85 31.5zM174 102q-42 0 -70.5 -25t-28.5 -62t29 -61.5t70 -24.5q42 0 71 25
t29 61q0 37 -29 62t-71 25zM174 291q-34 0 -57.5 -22t-23.5 -53q0 -34 23.5 -56t57.5 -22t57.5 22t23.5 56q0 31 -23.5 53t-57.5 22z" />
    <glyph glyph-name="nine.subs" horiz-adv-x="351" 
d="M177 326q59 0 99.5 -38.5t40.5 -96.5q0 -48 -30 -86l-145 -205h-48l110 156q-18 -2 -27 -2q-59 0 -100 39t-41 98q0 58 41 96.5t100 38.5zM177 290q-42 0 -71 -28t-29 -71t29 -71.5t71 -28.5t70.5 28.5t28.5 71.5t-28.5 71t-70.5 28z" />
    <glyph glyph-name="zero.lnum" horiz-adv-x="600" 
d="M300 748q120 0 184.5 -101.5t64.5 -278.5q0 -178 -64.5 -279.5t-184.5 -101.5t-184.5 101.5t-64.5 279.5q0 177 64.5 278.5t184.5 101.5zM300 701q-96 0 -147 -89t-51 -244q0 -156 51 -245t147 -89t147 89t51 245q0 155 -51 244t-147 89z" />
    <glyph glyph-name="one.lnum" horiz-adv-x="600" 
d="M367 748v-701h153v-47h-358v47h155v606l-195 -143l-26 43l267 195h4z" />
    <glyph glyph-name="two.lnum" horiz-adv-x="600" 
d="M294 748q89 0 147 -57.5t58 -148.5q0 -72 -24 -125.5t-79 -119.5l-208 -250h323v-47h-414v6l262 321q49 60 69 107t20 109q0 73 -43.5 115.5t-110.5 42.5t-106 -33.5t-55 -103.5l-46 10q38 174 207 174z" />
    <glyph glyph-name="three.lnum" horiz-adv-x="600" 
d="M290 748q86 0 141.5 -53.5t55.5 -141.5q0 -121 -113 -163q67 -21 105.5 -70t38.5 -117q0 -97 -60 -156.5t-157 -59.5q-91 0 -144 40.5t-87 117.5l46 15q27 -61 69.5 -93.5t115.5 -32.5q74 0 120.5 46.5t46.5 123.5q0 70 -51.5 116.5t-132.5 46.5h-83v43h86q62 1 106 37
t44 106q0 67 -41.5 107.5t-105.5 40.5q-116 0 -165 -120l-44 19q59 148 209 148z" />
    <glyph glyph-name="four.lnum" horiz-adv-x="600" 
d="M431 737v-521h117v-47h-117v-169h-50v169h-326v4l371 564h5zM382 589l-242 -373h242v373z" />
    <glyph glyph-name="five.lnum" horiz-adv-x="600" 
d="M479 735v-47h-307v-282q60 34 131 34q101 0 162.5 -63t61.5 -162q0 -96 -60.5 -162t-159.5 -66q-88 0 -140 39t-85 113l45 20q25 -60 66.5 -92.5t111.5 -32.5q76 0 123.5 52t47.5 130q0 79 -48 129t-129 50q-82 0 -153 -53l-24 10v383h357z" />
    <glyph glyph-name="six.lnum" horiz-adv-x="600" 
d="M299 459q96 0 162.5 -67t66.5 -169t-66.5 -169t-162.5 -67t-162.5 67t-66.5 169q0 88 51 152l246 360h60l-195 -286q35 10 67 10zM299 413q-75 0 -126.5 -54t-51.5 -136t51.5 -135.5t126.5 -53.5t127 53.5t52 135.5q0 81 -52.5 135.5t-126.5 54.5z" />
    <glyph glyph-name="seven.lnum" horiz-adv-x="600" 
d="M549 735v-6l-387 -729h-56l368 688h-398v47h473z" />
    <glyph glyph-name="eight.lnum" horiz-adv-x="600" 
d="M299 748q81 0 137 -53t56 -133q0 -58 -28.5 -103.5t-75.5 -67.5q63 -23 102 -74.5t39 -117.5q0 -90 -67 -151t-163 -61q-95 0 -161.5 60.5t-66.5 151.5q0 66 38 118t101 74q-47 22 -75 67.5t-28 103.5q0 80 56 133t136 53zM299 365q-74 0 -126 -47.5t-52 -118.5t52 -118
t126 -47q75 0 127 47t52 118t-52 118.5t-127 47.5zM299 701q-60 0 -102 -40t-42 -101q0 -64 42 -106.5t102 -42.5q61 0 103 42.5t42 106.5q0 61 -42 101t-103 40z" />
    <glyph glyph-name="nine.lnum" horiz-adv-x="600" 
d="M300 748q96 0 162.5 -67t66.5 -169q0 -89 -52 -152l-245 -360h-60l194 286q-30 -10 -66 -10q-96 0 -162.5 67t-66.5 169t66.5 169t162.5 67zM300 701q-75 0 -127 -53.5t-52 -135.5q0 -81 52.5 -135.5t126.5 -54.5q75 0 126.5 54t51.5 136t-51.5 135.5t-126.5 53.5z" />
    <glyph glyph-name="zero.tnum" horiz-adv-x="583" 
d="M292 570q107 0 177.5 -83t70.5 -208t-70.5 -207t-177.5 -82q-109 0 -179.5 82t-70.5 207t71 208t179 83zM292 525q-87 0 -143.5 -70t-56.5 -176t56.5 -175t143.5 -69q86 0 142.5 69t56.5 175t-56.5 176t-142.5 70z" />
    <glyph glyph-name="one.tnum" horiz-adv-x="351" 
d="M263 570v-570h-50v474l-158 -125l-25 44l229 177h4z" />
    <glyph glyph-name="two.tnum" horiz-adv-x="526" 
d="M270 570q86 0 141 -52t55 -137q0 -37 -9 -67t-30.5 -56.5t-37.5 -41.5t-48 -42l-151 -127h298v-47h-415v6l227 197q64 54 82 78q33 44 33 98q0 70 -40.5 107t-106.5 37q-92 0 -138 -85l-41 22q57 110 181 110z" />
    <glyph glyph-name="three.tnum" horiz-adv-x="524" 
d="M269 570q86 0 141.5 -52t55.5 -137q0 -118 -114 -158q68 -21 106.5 -68.5t38.5 -113.5q0 -94 -60 -152t-157 -58q-91 0 -144 39.5t-86 113.5l45 16q26 -59 69 -90.5t116 -31.5q75 0 121 44.5t46 119.5q0 67 -51.5 112t-132.5 45h-83v43h86q62 0 106 35t44 103
q0 65 -41.5 104t-106.5 39q-115 0 -164 -116l-44 19q59 144 209 144z" />
    <glyph glyph-name="four.tnum" horiz-adv-x="535" 
d="M400 570v-505h116v-46h-116v-164h-50v164h-327v3l372 548h5zM350 425l-240 -360h240v360z" />
    <glyph glyph-name="five.tnum" horiz-adv-x="528" 
d="M447 559v-46h-308v-273q62 33 131 33q102 0 163 -61.5t61 -157.5q0 -93 -60.5 -157t-159.5 -64q-88 0 -140 38t-84 110l44 19q26 -58 67 -89t111 -31q76 0 124 50t48 126t-48.5 124.5t-128.5 48.5q-82 0 -154 -51l-24 9v372h358z" />
    <glyph glyph-name="six.tnum" horiz-adv-x="531" 
d="M265 446q96 0 162.5 -65.5t66.5 -164.5t-66.5 -164t-162.5 -65t-162.5 65t-66.5 164q0 86 53 150l244 347h60l-194 -276q31 9 66 9zM265 400q-75 0 -126.5 -52.5t-51.5 -131.5t51.5 -131t126.5 -52t127 52t52 131t-52 131.5t-127 52.5z" />
    <glyph glyph-name="seven.tnum" horiz-adv-x="528" 
d="M503 560v-6l-387 -707h-56l366 666h-396v47h473z" />
    <glyph glyph-name="eight.tnum" horiz-adv-x="531" 
d="M260 726q81 0 137 -51.5t56 -129.5q0 -56 -28.5 -100t-74.5 -66q62 -22 101 -72t39 -114q0 -88 -67 -147t-163 -59q-95 0 -161.5 59t-66.5 147q0 64 38.5 114.5t100.5 71.5q-47 21 -75 65t-28 101q0 78 56 129.5t136 51.5zM260 353q-74 0 -126 -46t-52 -114t52 -114
t126 -46q75 0 127.5 46t52.5 114t-52.5 114t-127.5 46zM260 680q-60 0 -102 -39t-42 -97q0 -62 42 -103.5t102 -41.5q61 0 103 41.5t42 103.5q0 58 -42 97t-103 39z" />
    <glyph glyph-name="nine.tnum" horiz-adv-x="531" 
d="M266 570q96 0 162 -65t66 -164q0 -78 -44 -138l-252 -359h-60l194 277q-32 -9 -66 -9q-96 0 -163 65.5t-67 163.5q0 99 67 164t163 65zM266 524q-75 0 -127 -52t-52 -131t52 -131t127 -52t126.5 52t51.5 131t-51.5 131t-126.5 52z" />
    <glyph glyph-name="a.sups" horiz-adv-x="420" 
d="M190 744q80 0 124 -55l1 48h40v-349h-40l-1 49q-44 -56 -124 -56q-70 0 -115.5 51t-45.5 130t45.5 130.5t115.5 51.5zM198 706q-55 0 -90.5 -40.5t-35.5 -103.5t35.5 -102.5t90.5 -39.5q71 0 114 62v161q-45 63 -114 63z" />
    <glyph glyph-name="b.sups" horiz-adv-x="420" 
d="M109 920v-229q45 53 121 53q70 0 115.5 -51.5t45.5 -130.5t-45.5 -130t-115.5 -51q-78 0 -124 56v-49h-40v532h43zM223 706q-69 0 -114 -63v-161q43 -62 114 -62q55 0 90 39.5t35 102.5t-35 103.5t-90 40.5z" />
    <glyph glyph-name="c.sups" horiz-adv-x="366" 
d="M202 744q89 0 142 -74l-32 -24q-42 60 -110 60q-62 0 -96 -39.5t-34 -103.5t34.5 -103.5t97.5 -39.5q74 0 111 60l32 -25q-53 -74 -143 -74q-81 0 -128 50.5t-47 131.5q0 80 46 130.5t127 50.5z" />
    <glyph glyph-name="d.sups" horiz-adv-x="420" 
d="M355 920v-532h-40l-1 49q-44 -56 -124 -56q-70 0 -115.5 51t-45.5 130t45.5 130.5t115.5 51.5q75 0 122 -53v229h43zM198 706q-55 0 -90.5 -40.5t-35.5 -103.5t35.5 -102.5t90.5 -39.5q71 0 114 62v161q-45 63 -114 63z" />
    <glyph glyph-name="e.sups" horiz-adv-x="384" 
d="M195 744q74 0 116.5 -50t42.5 -128v-17h-282q2 -60 36 -95.5t96 -35.5q71 0 113 52l30 -25q-52 -64 -143 -64q-82 0 -128.5 50t-46.5 131q0 80 46 131t120 51zM194 708q-52 0 -85.5 -35.5t-36.5 -90.5h240q-3 56 -34.5 91t-83.5 35z" />
    <glyph glyph-name="f.sups" horiz-adv-x="252" 
d="M194 920q43 0 73 -27l-20 -33q-19 21 -51 21q-30 0 -47.5 -21t-17.5 -55v-68h103v-38h-103v-311h-43v311h-66v38h66v66q0 51 29 84t77 33z" />
    <glyph glyph-name="g.sups" horiz-adv-x="421" 
d="M190 744q80 0 124 -55l1 48h40v-344q0 -80 -46.5 -126.5t-124.5 -46.5q-95 0 -152 72l29 27q47 -60 123 -60q59 0 93.5 36t34.5 97v45q-47 -53 -122 -53q-70 0 -115.5 51t-45.5 129q0 79 45.5 129.5t115.5 50.5zM198 707q-55 0 -90.5 -40t-35.5 -103q0 -62 35.5 -102
t90.5 -40q70 0 114 62v160q-45 63 -114 63z" />
    <glyph glyph-name="h.sups" horiz-adv-x="415" 
d="M109 920v-232q45 56 117 56q62 0 97 -40t35 -107v-209h-43v207q0 49 -26 78.5t-71 29.5q-60 0 -109 -62v-253h-43v532h43z" />
    <glyph glyph-name="i.sups" horiz-adv-x="174" 
d="M108 737v-349h-42v349h42zM87 884q14 0 23.5 -9.5t9.5 -23.5t-9.5 -23.5t-23.5 -9.5t-23 9.5t-9 23.5t9 23.5t23 9.5z" />
    <glyph glyph-name="j.sups" horiz-adv-x="178" 
d="M112 737v-404q0 -51 -35.5 -82t-91.5 -31v39q37 0 60.5 20t23.5 51v407h43zM91 884q14 0 23.5 -9.5t9.5 -23.5t-9.5 -23.5t-23.5 -9.5t-23 9.5t-9 23.5t9 23.5t23 9.5z" />
    <glyph glyph-name="k.sups" horiz-adv-x="372" 
d="M109 920v-454l176 271h51l-106 -159l129 -190h-50l-106 154l-102 -154h-35v532h43z" />
    <glyph glyph-name="l.sups" horiz-adv-x="175" 
d="M109 920v-532h-43v532h43z" />
    <glyph glyph-name="m.sups" horiz-adv-x="650" 
d="M224 744q78 0 111 -70q50 70 131 70q59 0 93 -40t34 -107v-209h-42v207q0 48 -25.5 78t-68.5 30q-62 0 -110 -64q4 -17 4 -38v-213h-43v207q0 48 -25.5 78t-67.5 30q-61 0 -106 -61v-254h-43v349h40v-48q47 55 118 55z" />
    <glyph glyph-name="o.sups" horiz-adv-x="409" 
d="M205 744q75 0 124.5 -52t49.5 -130q0 -79 -49 -130t-125 -51q-77 0 -126.5 51t-49.5 130q0 78 49.5 130t126.5 52zM205 706q-58 0 -95.5 -40.5t-37.5 -103.5q0 -62 37.5 -102t95.5 -40q57 0 94.5 40t37.5 102t-37.5 103t-94.5 41z" />
    <glyph glyph-name="p.sups" horiz-adv-x="420" 
d="M230 744q70 0 115.5 -51t45.5 -130t-45.5 -130.5t-115.5 -51.5q-78 0 -121 53v-207h-43v510h40v-49q47 56 124 56zM223 706q-69 0 -114 -63v-161q43 -62 114 -62q55 0 90 40t35 103t-35 103t-90 40z" />
    <glyph glyph-name="q.sups" horiz-adv-x="420" 
d="M190 744q79 0 124 -56l1 49h40v-510h-43v207q-45 -53 -122 -53q-70 0 -115.5 51.5t-45.5 130.5t45.5 130t115.5 51zM198 706q-55 0 -90.5 -40t-35.5 -103t35.5 -103t90.5 -40q71 0 114 62v161q-45 63 -114 63z" />
    <glyph glyph-name="r.sups" horiz-adv-x="229" 
d="M214 744v-43h-6q-60 0 -99 -62v-251h-43v349h39l2 -51q37 58 107 58z" />
    <glyph glyph-name="s.sups" horiz-adv-x="325" 
d="M163 744q64 0 112 -38l-20 -33q-38 33 -91 33q-78 0 -78 -61q0 -25 19.5 -37.5t71.5 -24.5q60 -14 87 -36.5t27 -61.5q0 -46 -35.5 -75t-93.5 -29q-74 0 -128 42l20 33q45 -37 108 -37q39 0 63 16.5t24 49.5q0 26 -20.5 39.5t-71.5 25.5q-61 14 -87 34.5t-26 59.5
q0 47 32.5 73.5t86.5 26.5z" />
    <glyph glyph-name="t.sups" horiz-adv-x="273" 
d="M125 856v-119h118v-38h-118v-204q0 -36 19 -55.5t51 -19.5q36 0 53 12l14 -34q-26 -17 -70 -17q-50 0 -79.5 29.5t-29.5 84.5v204h-72v38h72v119h42z" />
    <glyph glyph-name="u.sups" horiz-adv-x="407" 
d="M341 737v-349h-39l-1 47q-48 -54 -120 -54q-58 0 -91.5 39.5t-33.5 104.5v212h43v-210q0 -47 24.5 -76t65.5 -29q65 0 109 60v255h43z" />
    <glyph glyph-name="v.sups" horiz-adv-x="374" 
d="M359 737l-171 -356h-3l-170 356h47l125 -270l125 270h47z" />
    <glyph glyph-name="w.sups" horiz-adv-x="542" 
d="M526 737l-146 -356h-2l-107 267l-108 -267h-2l-146 356h47l103 -264l105 264h2l105 -264l102 264h47z" />
    <glyph glyph-name="x.sups" horiz-adv-x="345" 
d="M319 737l-118 -172l124 -177h-50l-103 146l-102 -146h-51l125 177l-119 172h50l97 -140l98 140h49z" />
    <glyph glyph-name="y.sups" horiz-adv-x="386" 
d="M365 737l-243 -510h-48l96 194l-149 316h47l125 -271l125 271h47z" />
    <glyph glyph-name="z.sups" horiz-adv-x="316" 
d="M292 737v-3l-201 -309h201v-37h-269v3l200 308h-189v38h258z" />
    <glyph glyph-name="G.smcp_I.smcp" horiz-adv-x="633" 
d="M317 766q122 0 202.5 -84.5t80.5 -212.5q0 -129 -80.5 -213t-202.5 -84q-124 0 -203.5 84t-79.5 213q0 128 80 212.5t203 84.5zM317 730q-107 0 -176.5 -74.5t-69.5 -186.5q0 -113 69 -187t177 -74q106 0 175.5 74t69.5 187q0 112 -69.5 186.5t-175.5 74.5z" />
    <glyph glyph-name="zero.slash" horiz-adv-x="583" 
d="M292 748q120 0 184 -101.5t64 -278.5q0 -178 -64 -279.5t-184 -101.5t-185 101.5t-65 279.5q0 177 65 278.5t185 101.5zM490 368q0 148 -47 236l-278 -513q50 -59 127 -59q96 0 147 90t51 246zM292 702q-97 0 -148 -89t-51 -245q0 -152 46 -238l278 513q-48 59 -125 59z
" />
    </font>
</defs>
</svg>
